<svg width="50" height="50" viewBox="0 0 50 50" fill="none" xmlns="http://www.w3.org/2000/svg">
<path d="M16.1354 28.4974V27.8826C16.6512 27.6356 17.0039 27.1402 17.0466 26.5278C17.2903 23.0245 18.1388 21.2854 18.8874 19.751C19.4942 18.5073 20.0674 17.3326 20.0672 15.5703C20.0665 11.2176 16.5253 7.67651 12.1732 7.67651C7.82107 7.67651 4.28 11.2176 4.27931 15.5703C4.27912 17.3326 4.85223 18.5073 5.45902 19.751C6.20767 21.2854 7.05621 23.0245 7.2999 26.5278C7.34247 27.1402 7.69512 27.6356 8.21102 27.8826V28.4974C8.21102 29.1847 8.59599 29.7838 9.16148 30.0905V30.753C9.16148 31.7517 9.97399 32.5642 10.9727 32.5642H13.3735C14.3722 32.5642 15.1847 31.7517 15.1847 30.753V30.0905C15.7503 29.7838 16.1352 29.1847 16.1352 28.4974H16.1354ZM14.3241 28.9417H10.0223C9.78145 28.9417 9.57799 28.7382 9.57799 28.4974V28.0529H14.7685V28.4974C14.7685 28.7382 14.565 28.9417 14.3241 28.9417ZM10.5045 17.2347H9.7548C9.34142 17.2347 9.00517 16.8985 9.00517 16.485C9.00517 16.0715 9.34142 15.7354 9.7548 15.7354C10.1682 15.7354 10.5045 16.0716 10.5045 16.485V17.2347ZM12.4751 24.4304H11.8714V18.6016H12.4751V24.4304ZM15.7355 25.7973C15.7159 26.0035 15.6982 26.2149 15.683 26.433C15.6671 26.6614 15.4562 26.6861 15.3663 26.6861H8.98018C8.89025 26.6861 8.67937 26.6615 8.66355 26.433C8.64842 26.2149 8.63065 26.0036 8.61102 25.7974H15.7354L15.7355 25.7973ZM6.68764 19.1517C6.10574 17.9591 5.64609 17.017 5.64628 15.5705C5.64677 11.9714 8.5748 9.04338 12.1733 9.04338C15.7718 9.04338 18.6998 11.9714 18.7004 15.5705C18.7006 17.017 18.2409 17.959 17.659 19.1517C17.044 20.4122 16.3081 21.9217 15.908 24.4304H13.8419V18.6016H14.5917C15.7587 18.6016 16.7082 17.6521 16.7082 16.485C16.7082 15.3179 15.7587 14.3685 14.5917 14.3685C13.4247 14.3685 12.4751 15.318 12.4751 16.485V17.2347H11.8714V16.485C11.8714 15.318 10.9219 14.3685 9.7548 14.3685C8.58769 14.3685 7.6383 15.318 7.6383 16.485C7.6383 17.652 8.58779 18.6016 9.7548 18.6016H10.5045V24.4304H8.4386C8.0385 21.9217 7.30263 20.4121 6.68764 19.1517ZM13.842 17.2347V16.485C13.842 16.0716 14.1783 15.7354 14.5918 15.7354C15.0052 15.7354 15.3414 16.0716 15.3414 16.485C15.3414 16.8984 15.0051 17.2347 14.5918 17.2347H13.842ZM13.3738 31.1973H10.973C10.7321 31.1973 10.5286 30.9939 10.5286 30.753V30.3086H13.8181V30.753C13.8181 30.9939 13.6146 31.1973 13.3738 31.1973ZM11.566 6.63925V2.6517C11.566 2.27425 11.872 1.96826 12.2494 1.96826C12.6269 1.96826 12.9329 2.27425 12.9329 2.6517V6.63925C12.9329 7.0167 12.6269 7.32268 12.2494 7.32268C11.872 7.32268 11.566 7.0167 11.566 6.63925ZM16.3419 6.73757L17.6548 4.46358C17.8435 4.1367 18.2616 4.02472 18.5884 4.21344C18.9153 4.40217 19.0273 4.82014 18.8385 5.14702L17.5257 7.421C17.3991 7.64029 17.1694 7.76282 16.9332 7.76282C16.8172 7.76282 16.6998 7.73333 16.5921 7.67114C16.2652 7.48241 16.1532 7.06444 16.3419 6.73757ZM19.8269 10.9059C19.6382 10.5791 19.7501 10.1611 20.077 9.97236L22.351 8.65948C22.6779 8.47095 23.0958 8.58274 23.2846 8.90962C23.4733 9.2365 23.3613 9.65447 23.0344 9.84319L20.7604 11.1561C20.6529 11.2182 20.5353 11.2477 20.4193 11.2477C20.1831 11.2477 19.9534 11.1252 19.8269 10.9059ZM5.50754 5.14702C5.31882 4.82014 5.4308 4.40217 5.75768 4.21344C6.08456 4.02482 6.50253 4.1367 6.69125 4.46358L8.00413 6.73757C8.19286 7.06444 8.08087 7.48241 7.75399 7.67114C7.6464 7.73323 7.52885 7.76282 7.41286 7.76282C7.17669 7.76282 6.94696 7.64029 6.82042 7.421L5.50754 5.14702ZM3.92676 11.2477C3.81077 11.2477 3.69332 11.2183 3.58563 11.1561L1.31154 9.84319C0.984667 9.65447 0.872681 9.2365 1.06141 8.90962C1.25013 8.58264 1.6682 8.47076 1.99498 8.65948L4.26906 9.97236C4.59594 10.1611 4.70792 10.5791 4.5192 10.9059C4.39267 11.1252 4.16293 11.2477 3.92676 11.2477ZM47.6275 25.9856L45.6862 25.5441C45.5042 24.9712 45.2732 24.414 44.9961 23.8797L46.057 22.1942C46.5873 21.3519 46.5509 20.4628 45.9619 19.8739L44.4507 18.3626C43.8617 17.7737 42.9726 17.7374 42.1303 18.2674L40.4441 19.3288C39.9096 19.0518 39.3527 18.8208 38.7804 18.6389L38.3388 16.6971C38.1181 15.7265 37.4637 15.1235 36.6308 15.1235H34.4935C33.6607 15.1235 33.0062 15.7264 32.7855 16.697L32.3439 18.6389C31.7716 18.8208 31.2146 19.0518 30.6802 19.3288L28.9941 18.2675C28.1518 17.7373 27.2627 17.7738 26.6737 18.3626L25.1625 19.874C24.5735 20.4629 24.5371 21.352 25.0674 22.1942L26.1285 23.8803C25.8514 24.4147 25.6204 24.9717 25.4385 25.5441L24.5991 25.735C24.0429 25.2899 23.307 25.0462 22.4664 25.0527C22.0209 25.0574 21.7809 25.2626 21.658 25.4338C21.4661 25.7011 21.4377 26.0481 21.5737 26.4649L21.657 26.7187C21.7232 26.9196 21.7918 27.1274 21.8533 27.3279C21.8633 27.3604 21.8693 27.3864 21.8729 27.4063C21.7109 27.485 21.5036 27.5661 21.285 27.6517C20.4922 27.962 19.5055 28.3483 19.1519 29.2123C18.9835 29.6239 18.9858 30.0745 19.1579 30.5546C19.0633 30.6132 18.9657 30.6731 18.8668 30.7339C18.2229 31.1299 17.5569 31.5392 17.1346 31.914C16.7503 32.2552 16.359 32.8846 16.6772 33.9462L16.707 34.0456L16.7649 34.1317C16.8897 34.317 17.021 34.5368 17.148 34.7493C17.3208 35.0384 17.4995 35.3374 17.6837 35.5892C17.9404 35.94 18.2911 36.1847 18.726 36.3168C19.1003 36.4304 20.6556 36.4069 20.67 36.4062C21.0503 36.3899 21.9023 36.2181 22.2048 35.0461C22.5552 34.9139 23.1791 34.6887 24.0802 34.4012C23.9486 35.2862 23.3671 35.7086 22.4236 36.3232C22.0242 36.5835 21.6111 36.8525 21.2222 37.1966C20.6656 37.689 19.4135 39.1949 19.2238 40.5539H19.0703C18.1794 40.5539 17.4546 41.2788 17.4546 42.1697V43.0236C16.6333 43.1452 16.0003 43.853 16.0003 44.7076V46.3535C16.0003 47.2933 16.765 48.058 17.7048 48.058H31.8168C32.7566 48.058 33.5213 47.2933 33.5213 46.3535V44.7076C33.5213 43.8529 32.8883 43.1452 32.0669 43.0236V42.1697C32.0669 41.2788 31.3422 40.5539 30.4513 40.5539H30.3587C30.5503 39.9539 30.7598 39.1866 30.9187 38.3147C31.38 38.5393 31.8564 38.7309 32.3444 38.886L32.786 40.8279C33.0067 41.7985 33.6612 42.4014 34.494 42.4014H36.6313C37.4641 42.4014 38.1185 41.7984 38.3393 40.8279L38.7808 38.8866C39.3537 38.7045 39.9109 38.4736 40.4452 38.1965L42.1307 39.2574C42.9731 39.7877 43.8622 39.7512 44.451 39.1623L45.9623 37.651C46.5512 37.0621 46.5877 36.1729 46.0575 35.3306L44.9961 33.6444C45.2731 33.11 45.5041 32.5531 45.686 31.9807L47.6279 31.5391C48.5985 31.3184 49.2014 30.6639 49.2014 29.8311V27.6938C49.2014 26.8609 48.5984 26.2065 47.6279 25.9858L47.6275 25.9856ZM32.1539 46.3532C32.1539 46.5361 31.9993 46.6908 31.8163 46.6908H17.7044C17.5215 46.6908 17.3668 46.5362 17.3668 46.3532V44.7073C17.3668 44.5243 17.5214 44.3697 17.7044 44.3697H31.8164C31.9993 44.3697 32.154 44.5242 32.154 44.7073V46.3532H32.1539ZM30.6995 42.1694V43.0028H18.8211V42.1694C18.8211 42.0345 18.935 41.9205 19.0699 41.9205H30.4506C30.5855 41.9205 30.6995 42.0345 30.6995 42.1694H30.6995ZM20.6088 40.5536C20.8034 39.8189 21.5607 38.7215 22.1274 38.2201C22.441 37.9426 22.7947 37.7121 23.1693 37.4681C24.2384 36.7716 25.4502 35.9821 25.4748 34.0475C25.48 33.6316 25.3311 33.2892 25.0554 33.0834C24.9076 32.9731 24.5908 32.8094 24.1301 32.9523C22.2819 33.5249 21.3777 33.9005 21.34 33.9163L20.9738 34.0694L20.9253 34.4635C20.8555 35.03 20.6905 35.0371 20.6114 35.0404C20.318 35.0531 19.3286 35.0338 19.0986 35.0011C18.9617 34.9554 18.8621 34.8853 18.7863 34.7818C18.6397 34.5814 18.4848 34.3223 18.3208 34.048C18.2044 33.8531 18.0845 33.6526 17.9614 33.4638C17.8698 33.0886 17.9886 32.9831 18.0415 32.9363C18.3742 32.6409 19.0159 32.2464 19.5821 31.8984C19.7597 31.7892 19.9329 31.6828 20.089 31.5842C20.4754 31.3446 20.7452 30.7758 20.4845 30.1935C20.3951 29.994 20.3723 29.838 20.4164 29.7301C20.5483 29.4078 21.2617 29.1285 21.7827 28.9246C22.0483 28.8206 22.2994 28.7224 22.5234 28.6092C23.1482 28.2939 23.3859 27.665 23.1594 26.9271C23.1123 26.7736 23.0626 26.6199 23.0131 26.4686C23.4557 26.5592 23.9475 26.8019 24.1842 27.4027C24.1987 27.4399 24.2096 27.4706 24.2189 27.4967C24.3821 27.9559 24.6145 28.054 24.9997 28.2168L25.1238 28.2695C31.6201 31.0425 29.7169 38.2598 28.9165 40.5539H20.6084L20.6088 40.5536ZM47.834 29.8308C47.834 30.0714 47.4439 30.1788 47.3243 30.206L44.9925 30.7364C44.7469 30.7922 44.5519 30.9787 44.4851 31.2216C44.283 31.9566 43.9887 32.6665 43.6102 33.3316C43.4856 33.5506 43.4916 33.8203 43.6258 34.0336L44.9004 36.0584C44.9657 36.1622 45.1656 36.5141 44.9955 36.6841L43.4842 38.1954C43.3141 38.3656 42.9622 38.1656 42.8584 38.1003L40.8344 36.8263C40.6211 36.6919 40.3512 36.6861 40.1323 36.8107C39.4676 37.189 38.7574 37.4835 38.0216 37.6858C37.7788 37.7525 37.5923 37.9475 37.5363 38.1932L37.0061 40.5245C36.979 40.6441 36.8716 41.0341 36.631 41.0341H34.4937C34.2531 41.0341 34.1457 40.644 34.1185 40.5244L33.5881 38.1926C33.5323 37.9469 33.3458 37.7519 33.1029 37.6852C32.4125 37.4954 31.7448 37.2231 31.115 36.8772C31.1739 36.2255 31.1933 35.5415 31.1508 34.8436C30.9269 31.1576 29.0285 28.4494 25.6609 27.012L25.5321 26.9573C25.515 26.9501 25.4981 26.9429 25.4814 26.9359L26.1315 26.7881C26.3771 26.7322 26.5721 26.5458 26.6389 26.3029C26.841 25.5677 27.1354 24.8578 27.514 24.1926C27.6386 23.9736 27.6326 23.7037 27.4983 23.4905L26.224 21.4659C26.1587 21.3621 25.9588 21.0103 26.1289 20.8402L27.6402 19.3289C27.8105 19.1587 28.1621 19.3587 28.2659 19.424L30.2907 20.6984C30.504 20.8326 30.7737 20.8386 30.9926 20.714C31.6577 20.3356 32.3676 20.0411 33.1027 19.8391C33.3456 19.7723 33.532 19.5774 33.5879 19.3317L34.1183 16.9999C34.1454 16.8803 34.2529 16.4902 34.4935 16.4902H36.6308C36.8714 16.4902 36.9788 16.8803 37.0059 16.9999L37.5362 19.3317C37.5921 19.5774 37.7786 19.7723 38.0215 19.8391C38.7565 20.0412 39.4664 20.3355 40.1314 20.714C40.3504 20.8386 40.6203 20.8326 40.8334 20.6984L42.8583 19.4239C42.9619 19.3586 43.3139 19.1585 43.484 19.3288L44.9953 20.8401C45.1654 21.0101 44.9655 21.362 44.9002 21.4658L43.6261 23.4898C43.4919 23.7032 43.4858 23.9729 43.6105 24.1919C43.9888 24.8567 44.2833 25.5668 44.4856 26.3027C44.5524 26.5456 44.7474 26.732 44.993 26.7879L47.3243 27.3181C47.4439 27.3453 47.834 27.4527 47.834 27.6933V29.8306L47.834 29.8308ZM40.8989 28.7622C40.8989 31.705 38.5049 34.0991 35.5621 34.0991C35.1846 34.0991 34.8787 33.7931 34.8787 33.4157C34.8787 33.0382 35.1846 32.7322 35.5621 32.7322C37.7511 32.7322 39.5321 30.9513 39.5321 28.7622C39.5321 26.5732 37.7511 24.7923 35.5621 24.7923C33.373 24.7923 31.5921 26.5732 31.5921 28.7622C31.5921 29.209 31.6688 29.6512 31.8141 30.0693L34.7151 28.2367L33.6425 28.0014C33.2739 27.9204 33.0405 27.556 33.1214 27.1874C33.2024 26.8187 33.567 26.5854 33.9354 26.6663L36.7761 27.2896C36.9531 27.3285 37.1075 27.4361 37.2053 27.5887C37.303 27.7414 37.336 27.9266 37.2972 28.1036L36.6811 30.9115C36.611 31.2309 36.3282 31.4486 36.0141 31.4486C35.9656 31.4486 35.9163 31.4435 35.867 31.4326C35.4983 31.3517 35.265 30.9872 35.3459 30.6185L35.6423 29.2677L31.9489 31.6009C31.9032 31.6297 31.8551 31.6509 31.8062 31.6678C31.4849 31.8227 31.0942 31.7044 30.9157 31.3894C30.4641 30.5919 30.2252 29.6834 30.2252 28.7622C30.2252 25.8195 32.6193 23.4254 35.5621 23.4254C38.5049 23.4254 40.8989 25.8195 40.8989 28.7622Z" fill="black" stroke="black" stroke-width="0.0976336"/>
</svg>
