<svg width="50" height="51" viewBox="0 0 50 51" fill="none" xmlns="http://www.w3.org/2000/svg">
<path d="M12.6819 4.87744C10.9748 4.87744 9.58594 6.26628 9.58594 7.9734C9.58594 9.68053 10.9748 11.0695 12.6819 11.0695C14.389 11.0695 15.778 9.68053 15.778 7.9734C15.778 6.26628 14.389 4.87744 12.6819 4.87744ZM12.6819 9.60496C11.7823 9.60496 11.0504 8.8731 11.0504 7.9734C11.0504 7.07381 11.7823 6.34195 12.6819 6.34195C13.5816 6.34195 14.3135 7.07381 14.3135 7.9734C14.3134 8.8731 13.5815 9.60496 12.6819 9.60496Z" fill="black" stroke="black" stroke-width="0.0976336"/>
<path d="M15.7776 21.8411V19.0106C15.7776 18.6061 15.4499 18.2783 15.0454 18.2783H7.58674C7.18225 18.2783 6.85449 18.6061 6.85449 19.0106V21.8411C6.85449 22.2456 7.18225 22.5733 7.58674 22.5733H15.0455C15.4499 22.5733 15.7776 22.2456 15.7776 21.8411ZM14.3131 21.1088H8.319V19.7428H14.3132L14.3131 21.1088Z" fill="black" stroke="black" stroke-width="0.0976336"/>
<path d="M46.6455 6.1273H41.9975C41.188 6.1273 40.482 6.57778 40.1163 7.24101H20.6064V6.77676C20.6064 6.43045 20.3639 6.1316 20.025 6.06023L18.2407 5.68453C18.2375 5.67672 18.2342 5.66891 18.2309 5.6611L19.2271 4.13372C19.4163 3.84365 19.3764 3.46073 19.1315 3.21596L17.4394 1.52378C17.1945 1.27891 16.8117 1.23888 16.5215 1.4282L14.9941 2.42445C14.9863 2.42123 14.9785 2.418 14.9707 2.41469L14.595 0.630236C14.5238 0.29135 14.2248 0.0488281 13.8785 0.0488281H11.4854C11.1391 0.0488281 10.8402 0.29135 10.7689 0.630236L10.3932 2.41469C10.3854 2.41791 10.3777 2.42113 10.3698 2.42445L8.84247 1.4282C8.5524 1.23898 8.16948 1.27911 7.92461 1.52378L6.23243 3.21587C5.98756 3.46083 5.94773 3.84375 6.13685 4.13372L7.1331 5.6612C7.12988 5.66901 7.12666 5.67672 7.12334 5.68453L5.33889 6.06023C5 6.1315 4.75748 6.43045 4.75748 6.77676V7.24101H4.73805C2.79543 7.24101 1.21484 8.8215 1.21484 10.7642V33.5424C1.21484 35.485 2.79534 37.0656 4.73805 37.0656H7.51221C7.86623 39.6171 10.1071 41.5542 12.6817 41.5542C13.4409 41.5542 14.1619 41.39 14.8133 41.0975L13.1572 47.5778C12.4995 50.1507 16.5987 51.0247 17.2305 48.5542L20.1667 37.0658H22.5506V48.066C22.5506 49.1381 23.4499 50.0373 24.5219 50.0373C25.5941 50.0373 26.4933 49.1381 26.4933 48.066V37.0656H28.8774L31.8135 48.5539C32.4447 51.0239 36.5446 50.1514 35.8868 47.5776L33.2003 37.0656H44.3061C46.2487 37.0656 47.8293 35.4851 47.8293 33.5424V17.7205C47.8293 17.316 47.5016 16.9883 47.0971 16.9883C46.6926 16.9883 46.3648 17.316 46.3648 17.7205V33.5424C46.3648 34.6776 45.4413 35.6011 44.3061 35.6011L17.8508 35.6012C17.4936 33.068 15.3123 31.1126 12.6818 31.1126C10.1071 31.1126 7.86633 33.0494 7.51231 35.6011H4.73805C3.60286 35.6011 2.67935 34.6776 2.67935 33.5424V12.2744H6.02154C6.0357 12.442 6.10638 12.6047 6.23243 12.7307L7.92461 14.4228C8.16938 14.6675 8.55211 14.7076 8.84237 14.5184L10.3698 13.5222C10.3776 13.5254 10.3854 13.5286 10.3932 13.5319L10.7689 15.3164C10.8401 15.6553 11.1391 15.8978 11.4854 15.8978H13.8785C14.2248 15.8978 14.5237 15.6553 14.595 15.3164L14.9707 13.5319C14.9785 13.5287 14.9864 13.5255 14.9942 13.5222L16.5215 14.5184C16.8118 14.7077 17.1947 14.6676 17.4394 14.4228L19.1315 12.7307C19.2575 12.6047 19.3281 12.442 19.3423 12.2744H39.5884L32.7621 19.1007L29.2559 15.5954C28.7101 15.0473 27.8034 15.0476 27.2568 15.5943L24.9806 17.8705C24.6946 18.1564 24.6946 18.6201 24.9805 18.906C25.2665 19.1918 25.7302 19.192 26.016 18.9061L28.2558 16.6665L31.7631 20.1729C32.3092 20.7185 33.2155 20.7202 33.7612 20.1728L43.7265 10.2074C43.9359 9.99789 43.9985 9.68302 43.8851 9.40935C43.7719 9.13568 43.5047 8.95731 43.2086 8.95731H41.9973C41.1166 8.95731 41.1175 7.5918 41.9973 7.5918H46.6453C47.0112 7.5918 47.3088 7.889 47.3088 8.25425V12.9023C47.3088 13.2752 46.9983 13.5856 46.6255 13.5856C46.2488 13.5856 45.9423 13.2791 45.9423 12.9023V11.692C45.9423 11.3959 45.7639 11.1288 45.4902 11.0155C45.2165 10.902 44.9017 10.9648 44.6923 11.1742L32.7626 23.1029L29.2549 19.5961C28.7049 19.0462 27.8091 19.0459 27.2568 19.5961L21.2471 25.6068C20.6319 26.2229 19.6579 25.2648 20.2817 24.6405L23.5757 21.3467C23.8616 21.0607 23.8616 20.5971 23.5757 20.3111C23.2897 20.0253 22.826 20.0251 22.5402 20.3111L19.2462 23.6049C18.393 24.4583 18.428 25.8819 19.3091 26.7C20.1432 27.4745 21.4789 27.4477 22.2833 26.6419L28.2559 20.6684L31.7632 24.1747C32.3069 24.7203 33.2168 24.7222 33.7612 24.1757L44.5363 13.4014C44.7619 14.3459 45.613 15.0503 46.6256 15.0503C47.7954 15.0503 48.7734 14.0726 48.7734 12.9025V8.25425C48.7735 7.08138 47.8189 6.1273 46.6455 6.1273ZM15.8116 48.1913C15.6492 48.8266 14.3916 48.6622 14.5762 47.9404L16.6881 39.6769C17.2977 38.9478 17.7118 38.0506 17.8507 37.0657H18.6551L15.8116 48.1913ZM25.0289 48.0659C25.0289 48.718 24.0151 48.7191 24.0151 48.0659V37.0656H25.0289V48.0659ZM34.468 47.9404C34.6521 48.6604 33.3949 48.826 33.2326 48.1913L30.3891 37.0656H31.6887L34.468 47.9404ZM11.834 32.6728C12.1109 32.6093 12.3961 32.5771 12.6818 32.5771C14.753 32.5771 16.438 34.2615 16.4387 36.3321L16.4386 36.3334L16.4387 36.3346C16.438 38.4053 14.7529 40.0896 12.6818 40.0896C10.6266 40.0896 8.92555 38.3868 8.92555 36.3333C8.92555 34.5727 10.1219 33.0673 11.834 32.6728ZM2.67935 10.7642C2.67935 9.62903 3.60286 8.70551 4.73805 8.70551H4.75748V9.16986C4.75748 9.51616 5 9.81502 5.33889 9.88639L7.12334 10.2621C7.12656 10.2699 7.12978 10.2776 7.1331 10.2854L6.79099 10.8099H2.67935V10.7642ZM16.8239 12.967L15.456 12.0747C14.9592 11.751 13.7412 12.262 13.6207 12.8353L13.2843 14.4331H12.0796L11.7433 12.8353C11.6212 12.255 10.3986 11.7548 9.90794 12.0747L8.54 12.967L7.68805 12.1152L8.58032 10.7472C8.90398 10.2506 8.39316 9.03249 7.81985 8.91191L6.22198 8.57556V7.37096L7.81985 7.03461C8.40029 6.91257 8.90007 5.6899 8.58032 5.19929L7.68805 3.83135L8.54 2.9794L9.90794 3.87167C10.4046 4.19542 11.6227 3.68451 11.7433 3.1112L12.0797 1.51333H13.2844L13.6208 3.1112C13.7428 3.69154 14.9655 4.19152 15.4561 3.87167L16.824 2.9794L17.6759 3.83135L16.7836 5.19929C16.4597 5.69586 16.971 6.91413 17.5442 7.03461L19.1419 7.37096V8.57566L17.5442 8.91201C16.9639 9.03395 16.4637 10.2568 16.7836 10.7473L17.6759 12.1153L16.8239 12.967ZM41.4989 10.3639L41.053 10.8098H18.5729L18.2309 10.2854C18.2341 10.2776 18.2374 10.2698 18.2407 10.262L20.025 9.88629C20.3639 9.81502 20.6064 9.51606 20.6064 9.16976V8.70541H39.8941C40.0577 9.51314 40.6967 10.1742 41.4989 10.3639Z" fill="black" stroke="black" stroke-width="0.0976336"/>
<path d="M42.6385 30.7075H28.7606C28.3561 30.7075 28.0283 31.0353 28.0283 31.4398C28.0283 31.8443 28.3561 32.172 28.7606 32.172H42.6385C43.043 32.172 43.3708 31.8443 43.3708 31.4398C43.3708 31.0353 43.0429 30.7075 42.6385 30.7075Z" fill="black" stroke="black" stroke-width="0.0976336"/>
<path d="M42.6386 27.4951H34.411C34.0065 27.4951 33.6787 27.8229 33.6787 28.2274C33.6787 28.6319 34.0065 28.9596 34.411 28.9596H42.6386C43.0431 28.9596 43.3709 28.6319 43.3709 28.2274C43.3709 27.8229 43.043 27.4951 42.6386 27.4951Z" fill="black" stroke="black" stroke-width="0.0976336"/>
<path d="M7.58674 23.8896C7.18225 23.8896 6.85449 24.2174 6.85449 24.6219C6.85449 25.0264 7.18225 25.3542 7.58674 25.3542H12.6817C13.0862 25.3542 13.4139 25.0264 13.4139 24.6219C13.4139 24.2174 13.0862 23.8896 12.6817 23.8896H7.58674Z" fill="black" stroke="black" stroke-width="0.0976336"/>
<path d="M12.6824 38.0532C13.0869 38.0532 13.4147 37.7254 13.4147 37.321V35.346C13.4147 34.9415 13.0869 34.6138 12.6824 34.6138C12.278 34.6138 11.9502 34.9415 11.9502 35.346V37.321C11.9502 37.7254 12.278 38.0532 12.6824 38.0532Z" fill="black" stroke="black" stroke-width="0.0976336"/>
</svg>
