<svg width="127" height="25" viewBox="0 0 127 25" fill="none" xmlns="http://www.w3.org/2000/svg">
<g clip-path="url(#clip0_50_2257)">
<path d="M31.2316 19.5305C30.6119 19.5305 29.9736 19.4685 29.3174 19.3445C28.6609 19.2278 28.052 19.0856 27.4904 18.9179C26.9288 18.7429 26.4839 18.5751 26.1558 18.4147L26.4839 15.4391C26.9945 15.6871 27.5269 15.9168 28.0811 16.1283C28.6353 16.3398 29.2043 16.5112 29.7876 16.6425C30.3712 16.7737 30.9619 16.8394 31.5599 16.8394C32.3037 16.8394 32.9019 16.6935 33.3539 16.4018C33.8062 16.1101 34.0322 15.6652 34.0322 15.0672C34.0322 14.6077 33.9046 14.2394 33.6493 13.9623C33.3942 13.6779 33.0039 13.4262 32.4788 13.2075C31.9537 12.9814 31.2828 12.7261 30.4658 12.4417C29.6492 12.1573 28.9163 11.8364 28.2671 11.479C27.618 11.1144 27.1039 10.6549 26.7246 10.1006C26.3454 9.54636 26.1558 8.83894 26.1558 7.97835C26.1558 7.13238 26.3636 6.3812 26.7793 5.72483C27.195 5.06116 27.8149 4.54335 28.6391 4.1714C29.4705 3.79217 30.5025 3.60254 31.735 3.60254C32.6683 3.60254 33.5581 3.7083 34.4042 3.91979C35.2502 4.124 35.9722 4.34643 36.5703 4.5871L36.2858 7.45328C35.4251 7.06673 34.6158 6.77501 33.8573 6.57809C33.1059 6.37389 32.3404 6.2718 31.5599 6.2718C30.7432 6.2718 30.1123 6.40671 29.6674 6.67656C29.2225 6.94639 29 7.35116 29 7.89084C29 8.32115 29.124 8.66755 29.372 8.93009C29.6201 9.19266 29.9736 9.41873 30.4332 9.60836C30.8925 9.79068 31.4432 9.98395 32.085 10.1882C33.1935 10.5382 34.1233 10.9247 34.8747 11.3477C35.6331 11.7634 36.202 12.2703 36.5811 12.8683C36.9676 13.4591 37.1609 14.192 37.1609 15.0672C37.1609 15.5048 37.0916 15.9825 36.9532 16.5002C36.8145 17.0108 36.5412 17.4957 36.1327 17.9552C35.7242 18.4147 35.1262 18.7939 34.3386 19.0929C33.5581 19.3846 32.5226 19.5305 31.2316 19.5305Z" fill="black"/>
<path d="M38.9375 24.5189V8.28467H41.1256L41.6505 10.1006L40.8411 9.8162C41.3442 9.29839 41.8911 8.88633 42.4821 8.58004C43.0728 8.26642 43.7948 8.10962 44.6482 8.10962C45.7202 8.10962 46.6209 8.36854 47.35 8.88633C48.0793 9.40415 48.63 10.0933 49.002 10.9539C49.3811 11.8145 49.5707 12.7553 49.5707 13.7763C49.5707 14.7973 49.3811 15.7381 49.002 16.5987C48.63 17.4593 48.0793 18.1485 47.35 18.6663C46.6209 19.1841 45.7202 19.443 44.6482 19.443C43.7948 19.443 43.1018 19.3263 42.5696 19.0929C42.0372 18.8595 41.4974 18.4876 40.9505 17.9771L41.6505 17.4301V24.5189H38.9375ZM44.2323 17.2113C45.0419 17.2113 45.669 16.8941 46.114 16.2596C46.5662 15.6178 46.7922 14.79 46.7922 13.7763C46.7922 12.7553 46.5662 11.9275 46.114 11.293C45.669 10.6585 45.0419 10.3413 44.2323 10.3413C43.6052 10.3413 43.091 10.4872 42.6898 10.7789C42.2887 11.0706 41.9934 11.4754 41.8038 11.9932C41.614 12.5037 41.5194 13.0981 41.5194 13.7763C41.5194 14.4546 41.614 15.0526 41.8038 15.5704C41.9934 16.0809 42.2887 16.482 42.6898 16.7737C43.091 17.0655 43.6052 17.2113 44.2323 17.2113Z" fill="black"/>
<path d="M51.4585 19.2242V8.28473H53.9963L54.0621 9.44432C54.3392 9.13799 54.7292 8.8317 55.2326 8.52537C55.7357 8.21908 56.2864 8.06592 56.8844 8.06592C57.0596 8.06592 57.22 8.08052 57.3658 8.10967L57.1689 10.7789C57.0084 10.7352 56.848 10.706 56.6875 10.6914C56.5344 10.6768 56.3813 10.6695 56.2279 10.6695C55.7686 10.6695 55.3493 10.7753 54.9699 10.9868C54.5908 11.1983 54.3246 11.4572 54.1715 11.7635V19.2242H51.4585Z" fill="black"/>
<path d="M58.6802 19.2243V8.28475H61.3931V19.2243H58.6802ZM58.6802 6.62192V3.90894H61.3931V6.62192H58.6802Z" fill="black"/>
<path d="M63.936 19.2242V8.28467H66.4741L66.5835 10.3194L65.949 9.48802C66.3645 9.13794 66.8606 8.82071 67.4368 8.53628C68.0128 8.25185 68.6837 8.10962 69.4495 8.10962C70.8498 8.10962 71.8892 8.57639 72.5674 9.50988C73.2456 10.4361 73.5848 11.6395 73.5848 13.1199V19.2242H70.8718V13.3387C70.8718 12.3177 70.7002 11.5629 70.3576 11.0742C70.022 10.5856 69.4715 10.3413 68.7057 10.3413C68.0857 10.3413 67.5788 10.4944 67.185 10.8007C66.7912 11.0998 66.4448 11.5009 66.1459 12.0041L66.649 10.6695V19.2242H63.936Z" fill="black"/>
<path d="M80.3401 24.7378C79.3192 24.7378 78.4258 24.6101 77.66 24.3549C76.9016 24.1069 76.3109 23.7496 75.8877 23.2828C75.4719 22.8161 75.2642 22.2582 75.2642 21.6091C75.2642 21.0621 75.4137 20.5735 75.7126 20.1432C76.0191 19.7202 76.4602 19.3482 77.0364 19.0273C76.7446 18.8523 76.5113 18.6335 76.3362 18.371C76.1613 18.1084 76.0737 17.8094 76.0737 17.4739C76.0737 17.1238 76.1722 16.8212 76.3691 16.5659C76.5733 16.3034 76.8396 16.0956 77.1678 15.9424C76.6133 15.5486 76.194 15.0453 75.9098 14.4327C75.6253 13.8128 75.4831 13.1419 75.4831 12.4199C75.4831 11.6322 75.6544 10.9102 75.9971 10.2538C76.34 9.59016 76.8396 9.06141 77.4958 8.6676C78.1596 8.26648 78.9692 8.06592 79.9245 8.06592C80.4203 8.06592 80.8761 8.12792 81.2919 8.2519C81.7148 8.37588 82.0903 8.54727 82.4186 8.76605C82.6375 8.64207 82.9546 8.53269 83.3704 8.43786C83.7862 8.33577 84.2493 8.28473 84.7598 8.28473C84.8838 8.28473 85.0005 8.28473 85.1098 8.28473C85.2265 8.28473 85.3431 8.28473 85.4598 8.28473L85.2849 9.99129C85.1245 9.99129 84.9602 9.99129 84.7924 9.99129C84.632 9.99129 84.468 9.99129 84.3002 9.99129C84.2347 9.99129 84.1471 9.99129 84.0378 9.99129C83.9284 9.99129 83.8115 9.99858 83.6878 10.0132C83.9064 10.3487 84.0704 10.7242 84.18 11.1399C84.2893 11.5556 84.344 11.9823 84.344 12.4199C84.344 13.2075 84.1726 13.9332 83.83 14.5968C83.4944 15.2532 82.9984 15.7819 82.3422 16.1831C81.6857 16.5769 80.8799 16.7738 79.9245 16.7738C79.7203 16.7738 79.5234 16.7592 79.3336 16.73C79.144 16.7009 78.9545 16.6644 78.765 16.6206C78.6045 16.6863 78.5243 16.803 78.5243 16.9707C78.5243 17.1676 78.6445 17.3171 78.8852 17.4192C79.1258 17.5213 79.5014 17.6125 80.0118 17.6927L81.8934 17.9334C83.0677 18.0865 83.9866 18.4184 84.6502 18.9289C85.3214 19.4394 85.6567 20.165 85.6567 21.1059C85.6567 21.8351 85.4454 22.4696 85.0222 23.0093C84.6067 23.5563 84.0013 23.9793 83.2064 24.2783C82.4112 24.5846 81.4559 24.7378 80.3401 24.7378ZM80.4497 22.6811C81.3686 22.6811 82.0651 22.5681 82.5391 22.342C83.0131 22.1159 83.2499 21.7695 83.2499 21.3027C83.2499 20.887 83.0824 20.5807 82.7468 20.3838C82.4186 20.1869 81.8934 20.0338 81.1714 19.9244L78.7758 19.5743C78.4185 19.7129 78.1193 19.9025 77.8787 20.1432C77.638 20.3911 77.5178 20.712 77.5178 21.1059C77.5178 21.6382 77.7767 22.0321 78.2945 22.2873C78.8123 22.5499 79.5308 22.6811 80.4497 22.6811ZM79.9245 14.7609C80.5734 14.7609 81.0621 14.5494 81.3903 14.1264C81.7259 13.6962 81.8934 13.1273 81.8934 12.4199C81.8934 11.7051 81.7259 11.1363 81.3903 10.7133C81.0621 10.2903 80.5734 10.0788 79.9245 10.0788C79.2681 10.0788 78.772 10.2903 78.4367 10.7133C78.1011 11.1363 77.9333 11.7051 77.9333 12.4199C77.9333 13.1273 78.1011 13.6962 78.4367 14.1264C78.772 14.5494 79.2681 14.7609 79.9245 14.7609Z" fill="black"/>
<path d="M87.6251 19.2242V10.5164H86.0718L86.3124 8.28472H87.6251V5.96554C87.6251 5.00284 87.9096 4.23709 88.4785 3.66823C89.0545 3.09936 89.8788 2.81494 90.9508 2.81494C91.3008 2.81494 91.6217 2.83317 91.9135 2.86964C92.2124 2.9061 92.4824 2.95351 92.7231 3.01185L92.4824 5.19976C92.3728 5.16329 92.2526 5.13778 92.1213 5.12318C91.9902 5.10131 91.8259 5.09035 91.629 5.09035C91.2353 5.09035 90.9217 5.19612 90.6884 5.40761C90.4548 5.6191 90.3381 5.96554 90.3381 6.44686V8.28472H92.7449V10.5164H90.3381V19.2242H87.6251Z" fill="black"/>
<path d="M94.6611 19.2243V8.28475H97.3741V19.2243H94.6611ZM94.6611 6.62192V3.90894H97.3741V6.62192H94.6611Z" fill="black"/>
<path d="M105.19 19.443C103.87 19.443 102.769 19.1804 101.886 18.6553C101.011 18.123 100.355 17.4228 99.917 16.555C99.4794 15.6798 99.2607 14.7244 99.2607 13.6888C99.2607 12.6896 99.465 11.7671 99.8732 10.9211C100.289 10.0751 100.894 9.39686 101.689 8.88633C102.484 8.36854 103.454 8.10962 104.599 8.10962C105.649 8.10962 106.524 8.32478 107.225 8.75506C107.925 9.18534 108.45 9.76149 108.8 10.4835C109.15 11.1982 109.325 11.9895 109.325 12.8574C109.325 13.0981 109.311 13.3424 109.281 13.5903C109.252 13.831 109.208 14.0826 109.15 14.3452H102.083C102.185 15.0234 102.397 15.574 102.717 15.997C103.046 16.4127 103.443 16.719 103.91 16.9159C104.384 17.1129 104.891 17.2113 105.431 17.2113C106.065 17.2113 106.656 17.1311 107.203 16.9707C107.75 16.8029 108.253 16.5841 108.712 16.3143L108.844 18.6116C108.428 18.8304 107.91 19.0236 107.29 19.1914C106.671 19.3591 105.97 19.443 105.19 19.443ZM102.149 12.5073H106.568C106.568 12.1791 106.506 11.851 106.382 11.5228C106.258 11.1873 106.05 10.9065 105.759 10.6804C105.474 10.4543 105.088 10.3413 104.599 10.3413C103.899 10.3413 103.348 10.5455 102.947 10.9539C102.546 11.3623 102.28 11.8801 102.149 12.5073Z" fill="black"/>
<path d="M113.977 19.443C113.328 19.443 112.796 19.3154 112.38 19.0601C111.972 18.7976 111.669 18.4512 111.472 18.0209C111.275 17.5833 111.177 17.102 111.177 16.5769V2.81494H113.89V15.461C113.89 16.0445 113.923 16.4602 113.988 16.7081C114.061 16.9488 114.192 17.0947 114.382 17.1457C114.572 17.1895 114.845 17.2114 115.203 17.2114L114.962 19.443H113.977Z" fill="black"/>
<path d="M121.238 19.443C120.129 19.443 119.195 19.1841 118.437 18.6663C117.686 18.1485 117.117 17.4593 116.73 16.5988C116.351 15.7382 116.162 14.7974 116.162 13.7763C116.162 12.7553 116.351 11.8145 116.73 10.9539C117.117 10.0934 117.686 9.40419 118.437 8.88638C119.195 8.36859 120.129 8.10966 121.238 8.10966C122.04 8.10966 122.718 8.2446 123.272 8.51443C123.826 8.777 124.315 9.11612 124.738 9.53182L124.082 10.1007V2.81494H126.795V19.2242H124.235L124.104 17.3645L124.891 17.9334C124.381 18.4001 123.852 18.7684 123.305 19.0383C122.758 19.3081 122.069 19.443 121.238 19.443ZM121.631 17.2114C122.229 17.2114 122.718 17.0655 123.097 16.7738C123.477 16.4821 123.757 16.0809 123.94 15.5704C124.122 15.0526 124.213 14.4546 124.213 13.7763C124.213 13.0981 124.122 12.5037 123.94 11.9932C123.757 11.4754 123.477 11.0706 123.097 10.7789C122.718 10.4872 122.229 10.3413 121.631 10.3413C121.062 10.3413 120.578 10.4872 120.176 10.7789C119.775 11.0706 119.469 11.4754 119.257 11.9932C119.046 12.5037 118.94 13.0981 118.94 13.7763C118.94 14.4546 119.046 15.0526 119.257 15.5704C119.469 16.0809 119.775 16.4821 120.176 16.7738C120.578 17.0655 121.062 17.2114 121.631 17.2114Z" fill="black"/>
<path d="M11.6689 11.9312C17.3079 11.9312 21.8792 11.9312 21.8792 11.9312C21.8792 17.5701 17.3079 22.1414 11.6689 22.1414C11.6689 22.1414 11.6689 16.307 11.6689 11.9312Z" fill="black"/>
<path d="M21.8792 10.4724C16.2402 10.4724 11.6689 10.4724 11.6689 10.4724C11.6689 4.83347 16.2402 0.262207 21.8792 0.262207C21.8792 0.262207 21.8792 6.09662 21.8792 10.4724Z" fill="black"/>
<path d="M10.2102 11.9312C10.2102 17.5701 10.2102 22.1414 10.2102 22.1414C4.57127 22.1414 -6.72439e-08 17.5701 0 11.9312C0 11.9312 5.83441 11.9312 10.2102 11.9312Z" fill="black"/>
<path d="M1.21836e-07 10.4724C5.46643e-08 4.83347 0 0.262207 0 0.262207C5.63896 0.262207 10.2102 4.83347 10.2102 10.4724C10.2102 10.4724 4.37581 10.4724 1.21836e-07 10.4724Z" fill="black"/>
</g>
<defs>
<clipPath id="clip0_50_2257">
<rect width="127" height="25" fill="white"/>
</clipPath>
</defs>
</svg>
