<svg width="127" height="19" viewBox="0 0 127 19" fill="none" xmlns="http://www.w3.org/2000/svg">
<g clip-path="url(#clip0_50_2221)">
<path d="M39.4167 18.6319C38.4321 18.6319 37.5041 18.4914 36.6325 18.2103C35.7608 17.9213 35.0266 17.4757 34.4294 16.8734C33.8322 16.2712 33.4528 15.4884 33.2915 14.5248L36.5841 13.8744C36.6566 14.6051 36.9149 15.1591 37.3588 15.5365C37.8107 15.9059 38.4523 16.0906 39.2835 16.0906C40.0823 16.0906 40.6756 15.934 41.063 15.6208C41.4503 15.2997 41.6439 14.9263 41.6439 14.5007C41.6439 14.1233 41.4906 13.7981 41.184 13.5251C40.8854 13.2521 40.3649 13.0594 39.6224 12.947L38.436 12.7543C37.9681 12.682 37.4677 12.5857 36.935 12.4652C36.4106 12.3368 35.9143 12.1481 35.4462 11.8992C34.9781 11.6422 34.5948 11.2889 34.2962 10.8393C33.9976 10.3896 33.8484 9.81149 33.8484 9.1049C33.8484 8.24574 34.0784 7.51103 34.5383 6.90079C35.0064 6.28252 35.6519 5.8128 36.4751 5.49162C37.2982 5.16241 38.2383 4.9978 39.2956 4.9978C40.272 4.9978 41.1637 5.14233 41.9707 5.43139C42.7777 5.71243 43.4515 6.12995 43.9922 6.68401C44.5411 7.23 44.8962 7.90849 45.0575 8.71948L41.765 9.39395C41.7084 9.06474 41.5995 8.75561 41.4382 8.46655C41.2847 8.17749 41.0467 7.94463 40.7239 7.76799C40.401 7.5833 39.9654 7.49097 39.4167 7.49097C38.7952 7.49097 38.299 7.61141 37.9276 7.85228C37.5645 8.09317 37.383 8.42238 37.383 8.83992C37.383 9.14503 37.4839 9.39396 37.6855 9.58665C37.8954 9.77937 38.1779 9.93595 38.533 10.0564C38.8961 10.1688 39.3037 10.2652 39.7556 10.3454L41.1113 10.5743C41.8052 10.6867 42.463 10.8834 43.0845 11.1645C43.7139 11.4375 44.2262 11.8309 44.6216 12.3448C45.0172 12.8587 45.2149 13.5332 45.2149 14.3682C45.2149 15.2916 44.9607 16.0705 44.4523 16.7048C43.9519 17.3392 43.262 17.8209 42.3823 18.1501C41.5107 18.4713 40.5223 18.6319 39.4167 18.6319Z" fill="black"/>
<path d="M49.8267 18.3188L46.6431 5.31104H50.3836L52.5019 16.175H52.1994L54.7172 5.31104H59.5108L62.0164 16.2111H61.6533L63.8323 5.31104H67.379L64.1832 18.3188H59.1717L56.7145 6.68409H57.3439L54.8383 18.3188H49.8267Z" fill="black"/>
<path d="M75.3561 18.6319C74.073 18.6319 72.9189 18.3549 71.894 17.8008C70.8772 17.2468 70.0702 16.4599 69.473 15.4402C68.8838 14.4124 68.5894 13.1999 68.5894 11.8028C68.5894 10.4137 68.8799 9.20927 69.4609 8.18953C70.0501 7.16979 70.8488 6.38288 71.8577 5.82885C72.8745 5.27482 74.0325 4.9978 75.3319 4.9978C76.0501 4.9978 76.7763 5.10621 77.5106 5.32299C78.2531 5.53979 78.9351 5.92521 79.5564 6.47924C80.1778 7.02524 80.6782 7.79207 81.0573 8.77969C81.4367 9.7593 81.6264 11.0119 81.6264 12.5375H70.9014V10.49H78.4064L78.0311 11.1283C77.9666 10.2612 77.8053 9.56257 77.547 9.03262C77.2889 8.50267 76.9619 8.11726 76.5665 7.87639C76.1711 7.6355 75.7272 7.51505 75.2349 7.51505C74.5974 7.51505 74.0647 7.69571 73.6371 8.05704C73.2094 8.41838 72.8866 8.92422 72.6688 9.57461C72.4589 10.217 72.3539 10.9637 72.3539 11.8148C72.3539 13.0996 72.596 14.1153 73.0802 14.862C73.5726 15.6088 74.3231 15.9822 75.3319 15.9822C75.9856 15.9822 76.5464 15.8135 77.0143 15.4763C77.4904 15.1391 77.8536 14.6252 78.1039 13.9346L81.3722 14.7657C81.0656 15.665 80.6015 16.3997 79.9801 16.9698C79.3587 17.5399 78.6445 17.9614 77.8375 18.2345C77.0386 18.4994 76.2114 18.6319 75.3561 18.6319Z" fill="black"/>
<path d="M88.9861 18.632C87.8965 18.632 86.9483 18.359 86.1413 17.813C85.3343 17.267 84.7131 16.4841 84.2772 15.4643C83.8414 14.4446 83.6235 13.2201 83.6235 11.7908C83.6235 10.3616 83.8414 9.14111 84.2772 8.12938C84.7211 7.10964 85.3465 6.3348 86.1535 5.80485C86.9605 5.26687 87.9249 4.99788 89.0465 4.99788C90.0068 4.99788 90.8623 5.2187 91.6128 5.66032C92.3713 6.10194 92.9887 6.82862 93.4648 7.84032L93.0896 7.86441V0.252441H96.6969V18.3188H93.2833V15.7052L93.3197 15.8859C92.8838 16.8253 92.2908 17.5199 91.5403 17.9696C90.7898 18.4112 89.9384 18.632 88.9861 18.632ZM90.3054 15.922C90.8703 15.922 91.3748 15.7735 91.8185 15.4764C92.2624 15.1793 92.6134 14.7256 92.8717 14.1154C93.1381 13.5051 93.2712 12.7464 93.2712 11.839C93.2712 10.466 92.9886 9.43419 92.4239 8.74364C91.859 8.05312 91.1609 7.70783 90.3297 7.70783C89.4581 7.70783 88.7561 8.07317 88.2235 8.80388C87.6988 9.53456 87.4366 10.5543 87.4366 11.8631C87.4366 13.1398 87.6908 14.1355 88.1992 14.8501C88.7157 15.5647 89.4179 15.922 90.3054 15.922Z" fill="black"/>
<path d="M105.981 18.6319C104.698 18.6319 103.544 18.3549 102.52 17.8008C101.503 17.2468 100.696 16.4599 100.098 15.4402C99.5093 14.4124 99.2148 13.1999 99.2148 11.8028C99.2148 10.4137 99.5054 9.20927 100.086 8.18953C100.676 7.16979 101.474 6.38288 102.483 5.82885C103.5 5.27482 104.658 4.9978 105.957 4.9978C106.676 4.9978 107.402 5.10621 108.136 5.32299C108.879 5.53979 109.56 5.92521 110.182 6.47924C110.803 7.02524 111.304 7.79207 111.683 8.77969C112.062 9.7593 112.252 11.0119 112.252 12.5375H101.527V10.49H109.032L108.657 11.1283C108.592 10.2612 108.431 9.56257 108.172 9.03262C107.914 8.50267 107.587 8.11726 107.192 7.87639C106.797 7.6355 106.353 7.51505 105.86 7.51505C105.223 7.51505 104.69 7.69571 104.263 8.05704C103.835 8.41838 103.512 8.92422 103.294 9.57461C103.084 10.217 102.979 10.9637 102.979 11.8148C102.979 13.0996 103.222 14.1153 103.706 14.862C104.198 15.6088 104.949 15.9822 105.957 15.9822C106.611 15.9822 107.172 15.8135 107.64 15.4763C108.116 15.1391 108.479 14.6252 108.729 13.9346L111.998 14.7657C111.691 15.665 111.227 16.3997 110.606 16.9698C109.984 17.5399 109.27 17.9614 108.463 18.2345C107.664 18.4994 106.837 18.6319 105.981 18.6319Z" fill="black"/>
<path d="M114.794 18.3187V5.31095H118.28V8.30998L118.195 7.76799C118.591 6.90882 119.152 6.23435 119.878 5.74453C120.604 5.24671 121.48 4.9978 122.505 4.9978C123.522 4.9978 124.353 5.22665 124.998 5.68432C125.652 6.14199 126.136 6.77634 126.451 7.58731C126.766 8.3983 126.923 9.33374 126.923 10.3936V18.3187H123.316V10.6225C123.316 9.69908 123.162 8.98445 122.856 8.47859C122.549 7.96471 122.016 7.70775 121.258 7.70775C120.362 7.70775 119.66 8.08916 119.152 8.85197C118.651 9.61477 118.401 10.7831 118.401 12.3568V18.3187H114.794Z" fill="black"/>
<path d="M9.24756 9.50002C9.24756 7.67101 9.78992 5.88309 10.8061 4.36233C11.8222 2.84158 13.2665 1.6563 14.9562 0.956375C16.646 0.256448 18.5054 0.0733155 20.2992 0.430135C22.0931 0.786956 23.7408 1.6677 25.0342 2.961C26.3274 4.2543 27.2082 5.90206 27.5649 7.6959C27.9219 9.48976 27.7388 11.3491 27.0389 13.0389C26.3389 14.7287 25.1536 16.173 23.6329 17.1891C22.112 18.2052 20.3241 18.7476 18.4951 18.7476V9.50002H9.24756Z" fill="black"/>
<path d="M18.4951 9.50001C18.4951 11.329 17.9528 13.1169 16.9366 14.6377C15.9205 16.1585 14.4762 17.3437 12.7865 18.0437C11.0967 18.7436 9.23732 18.9267 7.44346 18.5699C5.64961 18.2131 4.00186 17.3323 2.70856 16.039C1.41526 14.7457 0.534514 13.098 0.177694 11.3041C-0.179126 9.51027 0.0040068 7.65089 0.703933 5.96111C1.40386 4.27135 2.58914 2.82707 4.10989 1.81094C5.63065 0.794801 7.41857 0.252441 9.24758 0.252441V9.50001H18.4951Z" fill="black"/>
</g>
<defs>
<clipPath id="clip0_50_2221">
<rect width="127" height="19" fill="white"/>
</clipPath>
</defs>
</svg>
