<svg width="127" height="27" viewBox="0 0 127 27" fill="none" xmlns="http://www.w3.org/2000/svg">
<g clip-path="url(#clip0_50_2250)">
<path d="M15.3288 9.70824C16.006 9.31731 17.1039 9.31731 17.781 9.70824L30.9184 17.2924C31.5954 17.6833 31.5954 18.3172 30.9184 18.7081L17.781 26.2923C17.1039 26.6832 16.006 26.6832 15.3288 26.2923L2.19146 18.7081C1.5143 18.3172 1.51431 17.6833 2.19146 17.2924L15.3288 9.70824Z" fill="#212121"/>
<path d="M15.3137 5.42381C15.9908 5.03288 17.0887 5.03288 17.7659 5.42381L30.9032 13.008C31.5805 13.3989 31.5805 14.0327 30.9032 14.4237L17.7659 22.0078C17.0887 22.3988 15.9908 22.3988 15.3137 22.0078L2.17632 14.4237C1.49917 14.0327 1.49917 13.3989 2.17632 13.008L15.3137 5.42381Z" fill="#171717"/>
<path d="M15.3137 0.707742C15.9908 0.316821 17.0887 0.316821 17.7659 0.707742L30.9032 8.29195C31.5805 8.68285 31.5805 9.31666 30.9032 9.70759L17.7659 17.2918C17.0887 17.6827 15.9908 17.6827 15.3137 17.2918L2.17632 9.70759C1.49917 9.31666 1.49917 8.68285 2.17632 8.29195L15.3137 0.707742Z" fill="black"/>
<path d="M43.224 20.5399L37.9404 7.47095H40.2741L44.4 18.0568H43.5786L47.742 7.47095H50.0385L44.7174 20.5399H43.224ZM53.5785 20.7266C52.7694 20.7266 52.035 20.5212 51.3753 20.1105C50.7282 19.6997 50.2116 19.1458 49.8258 18.4488C49.4523 17.7394 49.2657 16.949 49.2657 16.0778C49.2657 15.1941 49.4523 14.4037 49.8258 13.7067C50.2116 12.9972 50.7282 12.4371 51.3753 12.0264C52.035 11.6032 52.7694 11.3916 53.5785 11.3916C54.2631 11.3916 54.8667 11.541 55.3893 11.8397C55.9245 12.126 56.3478 12.5243 56.6589 13.0346C56.97 13.5449 57.1257 14.1236 57.1257 14.7709V17.3473C57.1257 17.9945 56.97 18.5733 56.6589 19.0836C56.3601 19.5939 55.9434 19.9984 55.4082 20.2971C54.8727 20.5834 54.2631 20.7266 53.5785 20.7266ZM53.9145 18.7849C54.6738 18.7849 55.2837 18.5297 55.7442 18.0194C56.217 17.5091 56.4537 16.8557 56.4537 16.0591C56.4537 15.5239 56.3478 15.0509 56.1363 14.6402C55.9245 14.2294 55.626 13.912 55.2399 13.688C54.8667 13.4515 54.4248 13.3333 53.9145 13.3333C53.4165 13.3333 52.9746 13.4515 52.5888 13.688C52.2156 13.912 51.9168 14.2294 51.6927 14.6402C51.4812 15.0509 51.3753 15.5239 51.3753 16.0591C51.3753 16.5943 51.4812 17.0673 51.6927 17.478C51.9168 17.8887 52.2156 18.2124 52.5888 18.4488C52.9746 18.6729 53.4165 18.7849 53.9145 18.7849ZM56.3229 20.5399V18.1314L56.6775 15.9471L56.3229 13.7814V11.5783H58.3767V20.5399H56.3229ZM66.798 20.5399V15.3683C66.798 14.7709 66.6051 14.2792 66.2193 13.8934C65.8461 13.5075 65.3607 13.3146 64.7631 13.3146C64.3647 13.3146 64.0101 13.4017 63.699 13.576C63.3879 13.7502 63.1452 13.9929 62.9709 14.3041C62.7966 14.6153 62.7093 14.97 62.7093 15.3683L61.9065 14.9202C61.9065 14.2356 62.0559 13.632 62.3547 13.1092C62.6535 12.574 63.0642 12.1571 63.5868 11.8584C64.122 11.5472 64.7196 11.3916 65.3793 11.3916C66.0513 11.3916 66.6489 11.5659 67.1715 11.9144C67.6944 12.2504 68.1051 12.6923 68.4039 13.2399C68.7024 13.7751 68.8518 14.3352 68.8518 14.9202V20.5399H66.798ZM60.6558 20.5399V11.5783H62.7093V20.5399H60.6558ZM75.0648 20.7266C74.181 20.7266 73.3782 20.5212 72.6564 20.1105C71.9469 19.6997 71.3868 19.1396 70.9761 18.4302C70.5654 17.7207 70.3599 16.9303 70.3599 16.0591C70.3599 15.1754 70.5654 14.385 70.9761 13.688C71.3868 12.9786 71.9469 12.4185 72.6564 12.0077C73.3782 11.597 74.181 11.3916 75.0648 11.3916C75.7617 11.3916 76.4091 11.5285 77.0064 11.8023C77.6163 12.0637 78.1329 12.4434 78.5562 12.9412L77.2119 14.3041C76.9506 13.9929 76.6332 13.7627 76.2597 13.6133C75.8988 13.4515 75.5004 13.3706 75.0648 13.3706C74.5545 13.3706 74.1003 13.4889 73.7019 13.7253C73.3161 13.9494 73.011 14.2605 72.7872 14.6589C72.5754 15.0571 72.4698 15.5239 72.4698 16.0591C72.4698 16.5819 72.5754 17.0486 72.7872 17.4593C73.011 17.8576 73.3161 18.175 73.7019 18.4115C74.1003 18.6355 74.5545 18.7476 75.0648 18.7476C75.5004 18.7476 75.8988 18.6729 76.2597 18.5235C76.6332 18.3617 76.9506 18.1252 77.2119 17.814L78.5562 19.1769C78.1329 19.6748 77.6163 20.0607 77.0064 20.3345C76.4091 20.5959 75.7617 20.7266 75.0648 20.7266ZM83.9619 20.7266C83.0904 20.7266 82.3002 20.5212 81.5907 20.1105C80.8812 19.6873 80.3148 19.1209 79.8918 18.4115C79.4811 17.702 79.2756 16.9117 79.2756 16.0404C79.2756 15.1692 79.4811 14.385 79.8918 13.688C80.3148 12.991 80.8812 12.4371 81.5907 12.0264C82.3002 11.6032 83.0904 11.3916 83.9619 11.3916C84.8454 11.3916 85.6419 11.597 86.3514 12.0077C87.0609 12.4185 87.621 12.9786 88.0317 13.688C88.455 14.385 88.6665 15.1692 88.6665 16.0404C88.6665 16.9117 88.455 17.702 88.0317 18.4115C87.621 19.1209 87.0609 19.6873 86.3514 20.1105C85.6419 20.5212 84.8454 20.7266 83.9619 20.7266ZM83.9619 18.7476C84.4722 18.7476 84.9201 18.6355 85.3059 18.4115C85.7043 18.175 86.0091 17.8514 86.2209 17.4407C86.445 17.0299 86.5569 16.5632 86.5569 16.0404C86.5569 15.5177 86.445 15.0571 86.2209 14.6589C85.9968 14.2605 85.6917 13.9494 85.3059 13.7253C84.9201 13.4889 84.4722 13.3706 83.9619 13.3706C83.4639 13.3706 83.0157 13.4889 82.6176 13.7253C82.2318 13.9494 81.9267 14.2605 81.7026 14.6589C81.4911 15.0571 81.3852 15.5177 81.3852 16.0404C81.3852 16.5632 81.4911 17.0299 81.7026 17.4407C81.9267 17.8514 82.2318 18.175 82.6176 18.4115C83.0157 18.6355 83.4639 18.7476 83.9619 18.7476ZM94.0524 20.7266C93.2931 20.7266 92.6148 20.5585 92.0175 20.2225C91.4325 19.8864 90.972 19.4259 90.6357 18.8409C90.3123 18.2435 90.1503 17.5589 90.1503 16.7872V11.5783H92.2041V16.6939C92.2041 17.1295 92.2725 17.5029 92.4093 17.814C92.5587 18.1128 92.7705 18.343 93.0441 18.5049C93.3306 18.6666 93.6666 18.7476 94.0524 18.7476C94.6497 18.7476 95.1042 18.5733 95.4153 18.2248C95.739 17.8638 95.9007 17.3535 95.9007 16.6939V11.5783H97.9545V16.7872C97.9545 17.5713 97.7865 18.2621 97.4502 18.8596C97.1268 19.4446 96.6723 19.9051 96.0873 20.2411C95.5023 20.5647 94.824 20.7266 94.0524 20.7266ZM103.044 20.5399L98.955 11.5783H101.233L104.351 18.8782H103.007L106.143 11.5783H108.327L104.239 20.5399H103.044ZM113.39 20.7266C112.494 20.7266 111.685 20.5274 110.963 20.1291C110.254 19.7184 109.687 19.1583 109.264 18.4488C108.853 17.7394 108.648 16.9428 108.648 16.0591C108.648 15.1754 108.853 14.385 109.264 13.688C109.675 12.9786 110.229 12.4185 110.926 12.0077C111.635 11.597 112.419 11.3916 113.278 11.3916C114.112 11.3916 114.846 11.5845 115.481 11.9704C116.128 12.3562 116.633 12.8852 116.993 13.5573C117.367 14.2294 117.554 14.9949 117.554 15.8537C117.554 16.0031 117.541 16.1586 117.516 16.3205C117.504 16.4698 117.479 16.6379 117.441 16.8246H110.086V15.1443H116.377L115.612 15.8164C115.587 15.2687 115.481 14.8082 115.295 14.4348C115.108 14.0614 114.84 13.7751 114.492 13.576C114.155 13.3768 113.738 13.2773 113.241 13.2773C112.718 13.2773 112.264 13.3893 111.878 13.6133C111.492 13.8374 111.193 14.1548 110.982 14.5655C110.77 14.9638 110.664 15.443 110.664 16.0031C110.664 16.5632 110.776 17.0548 111 17.478C111.224 17.9012 111.542 18.231 111.953 18.4675C112.363 18.6915 112.836 18.8036 113.372 18.8036C113.832 18.8036 114.255 18.7227 114.641 18.5609C115.039 18.399 115.375 18.1626 115.649 17.8514L116.956 19.1769C116.52 19.6873 115.991 20.0731 115.369 20.3345C114.747 20.5959 114.087 20.7266 113.39 20.7266ZM119.2 20.5399V11.5783H121.253V20.5399H119.2ZM121.253 15.555L120.544 15.2003C120.544 14.0676 120.793 13.1528 121.291 12.4558C121.801 11.7463 122.567 11.3916 123.587 11.3916C124.035 11.3916 124.44 11.4725 124.801 11.6343C125.162 11.7961 125.498 12.0575 125.809 12.4185L124.465 13.8C124.303 13.6258 124.122 13.5013 123.923 13.4266C123.724 13.352 123.494 13.3146 123.233 13.3146C122.66 13.3146 122.187 13.4951 121.814 13.856C121.44 14.217 121.253 14.7833 121.253 15.555Z" fill="black"/>
</g>
<defs>
<clipPath id="clip0_50_2250">
<rect width="127" height="27" fill="white"/>
</clipPath>
</defs>
</svg>
