<svg width="50" height="50" viewBox="0 0 50 50" fill="none" xmlns="http://www.w3.org/2000/svg">
<path d="M29.291 28.2855C29.1445 27.9248 28.8655 27.6423 28.5054 27.4903C28.1453 27.3382 27.7483 27.3355 27.3878 27.4818L25.6526 28.1867C24.9064 28.4899 24.546 29.3437 24.8491 30.09L25.1581 30.8508C23.984 31.3417 23.0438 31.6118 21.8013 30.9897C20.3312 30.2528 18.7383 30.3537 17.4394 31.2159C16.1339 30.35 14.5388 30.2588 13.0738 30.9921C11.8309 31.6149 10.9302 31.3571 9.72157 30.8507L10.0306 30.09C10.3336 29.3437 9.97317 28.49 9.22706 28.1868L7.49191 27.4819C7.13126 27.3354 6.73428 27.3385 6.37421 27.4904C6.01413 27.6424 5.73519 27.9248 5.58865 28.2855L1.55862 38.205C1.25547 38.9513 1.61584 39.8051 2.36215 40.1083L4.09729 40.8132C4.2742 40.8851 4.45971 40.921 4.6455 40.921C4.83843 40.921 5.03155 40.8822 5.215 40.8048C5.57507 40.6528 5.85401 40.3704 6.00046 40.0097L6.3001 39.2723L7.15596 39.6234C7.47727 39.7793 7.71159 40.0486 7.86985 40.4387L7.04339 41.8379C6.74677 42.3399 6.6756 42.963 6.84802 43.5476C7.00687 44.0863 7.35064 44.5138 7.81733 44.7543C8.11501 44.9243 8.43769 45.0135 8.75978 45.0299C8.70999 45.4452 8.78976 45.8601 9.00231 46.2354C9.38659 46.914 10.1432 47.3568 10.9298 47.3634H10.9477C11.2808 47.3634 11.5952 47.2846 11.8764 47.1372C12.0595 47.4722 12.3258 47.7629 12.6605 47.9585C12.9971 48.1553 13.3662 48.2489 13.7312 48.2488C14.0807 48.2488 14.4259 48.162 14.7346 47.9987C14.9143 48.3191 15.1803 48.592 15.5166 48.7885C15.8531 48.9852 16.2222 49.0787 16.5871 49.0787C17.1236 49.0787 17.65 48.8758 18.0491 48.5023L18.5711 48.8087C18.9081 49.0064 19.2778 49.1005 19.643 49.1005C20.3725 49.1005 21.0837 48.725 21.479 48.0518C21.6413 47.7754 21.7346 47.4781 21.7639 47.1798C22.6098 47.3198 23.5038 46.9361 23.9569 46.1639C24.152 45.8317 24.2508 45.4604 24.2489 45.0836C24.4086 45.0789 24.5692 45.0562 24.728 45.0148C25.2783 44.8715 25.7391 44.5239 26.0255 44.0358C26.3069 43.5564 26.3784 43.0107 26.2677 42.5063C26.7824 42.3511 27.2123 42.014 27.4847 41.5499C27.8348 40.9534 27.8576 40.2553 27.6114 39.6606L28.5778 39.2681L28.8791 40.0097C29.0256 40.3704 29.3046 40.6529 29.6647 40.8049C29.8482 40.8824 30.0412 40.9211 30.2342 40.9211C30.4199 40.9211 30.6055 40.8852 30.7823 40.8133L32.5176 40.1084C33.2638 39.8052 33.6242 38.9514 33.3211 38.2051L29.2912 28.2855H29.291ZM4.73416 39.4952C4.72244 39.524 4.70008 39.5384 4.68329 39.5455C4.66659 39.5527 4.64053 39.5588 4.61172 39.5469L2.87658 38.842C2.8302 38.8232 2.80609 38.766 2.82493 38.7195L6.85495 28.7998C6.86667 28.7711 6.88903 28.7566 6.90582 28.7495C6.91568 28.7453 6.92876 28.7415 6.9438 28.7415C6.95425 28.7415 6.96557 28.7433 6.97739 28.7481L8.71253 29.453C8.75891 29.4718 8.78302 29.5291 8.76428 29.5755L4.73416 39.4952ZM8.44872 43.542C8.26771 43.4515 8.18951 43.2643 8.15895 43.1609C8.09539 42.9452 8.11882 42.7046 8.22016 42.533L9.41578 40.5091C9.62589 40.1532 10.083 40.0297 10.4431 40.2281C10.7411 40.4351 10.9888 40.8262 10.7278 41.2678C10.6918 41.3288 10.6663 41.393 10.6508 41.4586L9.66914 43.1264C9.61642 43.1729 9.56975 43.228 9.53207 43.2917C9.31864 43.6532 8.85019 43.7749 8.48788 43.5631C8.47509 43.5555 8.462 43.5485 8.44872 43.5419V43.542ZM10.9474 45.9966H10.9411C10.6433 45.9941 10.3351 45.8154 10.1916 45.5618C10.0713 45.3493 10.0863 45.1123 10.2365 44.8572L11.9396 41.9634C12.0809 41.7232 12.2776 41.6016 12.5245 41.6016H12.5308C12.8341 41.6041 13.1472 41.7848 13.2922 42.0407C13.4111 42.2508 13.397 42.4751 13.249 42.7265L11.7978 45.1921C11.7976 45.1926 11.7973 45.193 11.797 45.1936L11.5459 45.6203C11.3989 45.87 11.1977 45.9966 10.9474 45.9966ZM13.3502 46.7786C13.046 46.6008 12.8775 46.1453 12.9995 45.8455L14.4272 43.4199C14.4342 43.4082 14.44 43.3963 14.4467 43.3845C14.4597 43.3673 14.4722 43.3496 14.4837 43.331C14.7049 42.9735 15.1735 42.9566 15.4988 43.1468C15.6713 43.2476 15.7943 43.4112 15.8453 43.6074C15.8963 43.8036 15.8686 44.0063 15.767 44.1784L14.8209 45.7824C14.8203 45.7834 14.8195 45.7843 14.8189 45.7854C14.8176 45.7877 14.8163 45.7903 14.8148 45.7926L14.3931 46.5076C14.1802 46.8687 13.7122 46.9903 13.3502 46.7786ZM16.2062 47.6086C16.0255 47.503 15.9106 47.3598 15.8647 47.1833C15.8099 46.9726 15.8569 46.7185 15.9933 46.4851L16.9442 44.873C16.9568 44.8516 16.9669 44.8292 16.9787 44.8075C16.9933 44.7879 17.0073 44.7674 17.02 44.7457C17.5804 43.7966 18.0407 44.0657 18.2373 44.1807C18.4097 44.2813 18.5327 44.4448 18.5837 44.6408C18.6345 44.8368 18.6067 45.0394 18.5052 45.2114L17.2927 47.265C17.2927 47.265 17.2924 47.2655 17.2922 47.2657C17.2921 47.2659 17.292 47.2662 17.2918 47.2664L17.2498 47.3375C17.0366 47.6987 16.5682 47.8203 16.2061 47.6087L16.2062 47.6086ZM20.3001 47.3599C20.0885 47.7202 19.6234 47.8415 19.2629 47.6299L18.8185 47.369L19.5889 46.0641L20.0554 46.3382C20.3935 46.5562 20.5035 47.0132 20.3001 47.3599ZM26.3058 40.8579C26.2041 41.0311 26.0397 41.1548 25.8426 41.206C25.6457 41.2575 25.4419 41.2295 25.2686 41.1279L21.3154 38.8074C20.99 38.6164 20.571 38.7254 20.38 39.0509C20.189 39.3764 20.2979 39.7952 20.6234 39.9862L24.5766 42.3067C24.5766 42.3067 24.5774 42.3071 24.5778 42.3073C24.9372 42.5193 25.0578 42.9838 24.8465 43.3438C24.7448 43.517 24.5804 43.6406 24.3834 43.6918C24.1866 43.7431 23.9826 43.7155 23.8094 43.6136L23.2018 43.2571C23.2014 43.2568 23.2009 43.2565 23.2003 43.2562C23.2002 43.2562 23.2 43.256 23.1999 43.2559L18.7724 40.6572C18.447 40.4663 18.0281 40.5752 17.8371 40.9007C17.646 41.2262 17.755 41.6449 18.0805 41.836L22.508 44.4347L22.5084 44.4349C22.6814 44.5366 22.8049 44.701 22.8561 44.8978C22.9074 45.0948 22.8797 45.2986 22.778 45.4719C22.5739 45.8197 22.119 45.9467 21.7649 45.7552C21.5506 45.6392 21.3245 45.5036 21.106 45.3724C20.9913 45.3036 20.8772 45.2351 20.7644 45.1691C20.7639 45.1688 20.7634 45.1684 20.763 45.1681L19.9714 44.7032C19.9629 44.5675 19.9417 44.4314 19.9066 44.2966C19.7636 43.7461 19.4156 43.2858 18.927 43.0002C18.2823 42.6235 17.6208 42.5934 17.0281 42.8793C16.8473 42.4994 16.5586 42.1828 16.1887 41.9666C15.6923 41.6764 15.1382 41.5969 14.632 41.7015C14.5927 41.5874 14.5432 41.4755 14.4819 41.3671C14.0961 40.6857 13.3348 40.2413 12.5425 40.2345C12.5364 40.2345 12.5305 40.2345 12.5245 40.2345C12.3815 40.2345 12.2421 40.2493 12.1072 40.2773C11.9603 39.8124 11.6479 39.388 11.1839 39.0787C11.1727 39.0712 11.1613 39.0641 11.1497 39.0573C10.3719 38.6028 9.42008 38.7014 8.75119 39.2299C8.47909 38.8606 8.13415 38.5729 7.72428 38.3799C7.71384 38.375 7.70329 38.3703 7.69255 38.3659L6.81463 38.0057L9.20724 32.1164C10.5775 32.6878 11.9307 33.0936 13.686 32.2139C14.5805 31.7662 15.5115 31.7534 16.3332 32.1549C14.8194 33.4607 13.3709 34.4763 12.0235 35.1756C11.6894 35.349 11.5584 35.7601 11.7306 36.0949C12.4831 37.5578 14.113 38.943 17.6038 37.2403C19.0414 36.5874 20.5519 36.677 22.0935 37.5065L26.0364 39.8209C26.0585 39.8338 26.0796 39.8477 26.0998 39.8625C26.1003 39.8629 26.1009 39.8633 26.1014 39.8637C26.4102 40.0906 26.504 40.5202 26.3059 40.8577L26.3058 40.8579ZM26.6292 38.5842L22.7746 36.3217C22.7677 36.3176 22.7605 36.3137 22.7534 36.3098C20.8357 35.274 18.8561 35.167 17.0286 36.0006C17.023 36.0031 17.0175 36.0057 17.0121 36.0085C14.8863 37.0476 13.8695 36.66 13.3144 36.0268C14.6574 35.253 16.0756 34.2094 17.5398 32.9165C17.5555 32.9026 17.5705 32.8881 17.5849 32.8729C18.5736 31.8233 19.9209 31.5762 21.189 32.2118C22.9489 33.093 24.3027 32.6886 25.6726 32.1171L28.0632 38.0016L26.6291 38.5843L26.6292 38.5842ZM32.003 38.842L30.2678 39.5469C30.2391 39.5588 30.213 39.5528 30.1962 39.5455C30.1795 39.5385 30.1571 39.5239 30.1453 39.4951L26.1154 29.5756C26.0966 29.5291 26.1207 29.4719 26.1671 29.453L27.9022 28.7481C27.931 28.7364 27.9571 28.7424 27.9738 28.7495C27.9905 28.7566 28.0129 28.7711 28.0246 28.7999L32.0546 38.7195C32.0734 38.7659 32.0493 38.8231 32.0029 38.842H32.003ZM13.9963 12.3412H23.5142C23.8916 12.3412 24.1976 12.0352 24.1976 11.6578C24.1976 9.46051 22.888 7.56457 21.009 6.70598C21.6777 6.0944 22.0978 5.21531 22.0978 4.23995C22.0978 2.39692 20.5983 0.897461 18.7553 0.897461C16.9123 0.897461 15.4128 2.39692 15.4128 4.23995C15.4128 5.21531 15.8329 6.0943 16.5016 6.70598C14.6226 7.56457 13.3129 9.46061 13.3129 11.6579C13.3129 12.0353 13.6189 12.3413 13.9964 12.3413L13.9963 12.3412ZM16.7796 4.23985C16.7796 3.15045 17.6659 2.26423 18.7552 2.26423C19.8445 2.26423 20.7308 3.15045 20.7308 4.23985C20.7308 5.32925 19.8459 6.214 18.7577 6.21537C18.7568 6.21537 18.756 6.21537 18.7551 6.21537C18.7543 6.21537 18.7535 6.21537 18.7527 6.21537C17.6645 6.214 16.7796 5.32846 16.7796 4.23985ZM18.7512 7.58224H18.7552H18.7591C20.7718 7.58419 22.4476 9.0524 22.7733 10.9742H14.7369C15.0626 9.05231 16.7385 7.58409 18.7512 7.58224ZM38.5612 31.9016H48.0791C48.4565 31.9016 48.7625 31.5956 48.7625 31.2182C48.7625 29.0209 47.4529 27.125 45.5738 26.2663C46.2425 25.6547 46.6627 24.7756 46.6627 23.8002C46.6627 21.9571 45.1633 20.4577 43.3202 20.4577C41.4772 20.4577 39.9777 21.9571 39.9777 23.8002C39.9777 24.7756 40.3979 25.6546 41.0665 26.2663C39.1875 27.125 37.8778 29.0209 37.8778 31.2182C37.8778 31.5956 38.1838 31.9016 38.5613 31.9016H38.5612ZM41.3445 23.8002C41.3445 22.7108 42.2308 21.8245 43.3201 21.8245C44.4094 21.8245 45.2957 22.7108 45.2957 23.8002C45.2957 24.8896 44.4101 25.7751 43.3213 25.7758C43.3209 25.7758 43.3204 25.7758 43.32 25.7758C43.3196 25.7758 43.3192 25.7758 43.3188 25.7758C42.2299 25.7751 41.3445 24.8892 41.3445 23.8002ZM43.3182 27.1426H43.3202H43.3222C45.3358 27.1436 47.0125 28.6122 47.3384 30.5347H39.302C39.6278 28.6122 41.3046 27.1436 43.3182 27.1426ZM48.7625 34.0276C48.7625 34.405 48.4565 34.711 48.0791 34.711H35.9386C35.5612 34.711 35.2552 34.4051 35.2552 34.0277V26.2325C35.2552 25.5266 34.6808 24.9522 33.9748 24.9522H23.7982C23.4207 24.9522 23.1148 24.6462 23.1148 24.2688V16.4736C23.1148 15.7677 22.5404 15.1934 21.8344 15.1934H14.0393C13.6619 15.1934 13.3559 14.8874 13.3559 14.5099C13.3559 14.1325 13.6619 13.8265 14.0393 13.8265H21.8344C23.2941 13.8265 24.4816 15.014 24.4816 16.4736V23.5854H33.9748C35.4345 23.5854 36.6221 24.7729 36.6221 26.2325V33.3442H48.0791C48.4565 33.3442 48.7625 33.6501 48.7625 34.0276ZM26.5764 14.7702V11.5256C26.5764 11.1481 26.8823 10.8421 27.2598 10.8421H30.4441C30.8216 10.8421 31.1275 11.1481 31.1275 11.5256C31.1275 11.903 30.8216 12.209 30.4441 12.209H28.8725L37.0298 20.721C37.291 20.9935 37.2818 21.4261 37.0093 21.6872C36.8769 21.8141 36.7065 21.8772 36.5365 21.8772C36.3567 21.8772 36.1772 21.8066 36.043 21.6666L27.9432 13.2147V14.7703C27.9432 15.1478 27.6372 15.4538 27.2598 15.4538C26.8823 15.4538 26.5764 15.1478 26.5764 14.7703V14.7702Z" fill="black" stroke="black" stroke-width="0.0976336"/>
</svg>
