<svg width="124" height="33" viewBox="0 0 124 33" fill="none" xmlns="http://www.w3.org/2000/svg">
<g clip-path="url(#clip0_50_2215)">
<path d="M35.9604 22.3207V10.1892H39.457L42.7064 17.1467C42.7885 17.3233 42.8945 17.5705 43.0243 17.8884C43.1537 18.1945 43.2831 18.5123 43.4126 18.842C43.5537 19.1716 43.6836 19.4777 43.8013 19.7602H43.9072C44.0132 19.513 44.1309 19.2305 44.2603 18.9126C44.3897 18.5947 44.5192 18.2828 44.6486 17.9767C44.7901 17.6588 44.9078 17.3939 45.0017 17.182L48.2511 10.1892H51.6945V22.3207H49.3988V14.7098C49.3988 14.4979 49.3988 14.2625 49.3988 14.0035C49.4105 13.7445 49.4226 13.4855 49.4344 13.2265C49.4461 12.9675 49.4578 12.7438 49.4695 12.5555H49.3284C49.2693 12.7321 49.1927 12.9381 49.0989 13.1735C49.0046 13.409 48.9045 13.6444 48.7986 13.8799C48.7043 14.1153 48.6159 14.3213 48.5335 14.4979L44.9137 22.3207H42.6708L39.0331 14.4979C38.9271 14.2742 38.8212 14.0447 38.7152 13.8092C38.6096 13.562 38.5154 13.3324 38.4329 13.1205C38.3621 12.8969 38.2976 12.7085 38.2385 12.5555H38.0974C38.1091 12.7203 38.115 12.9263 38.115 13.1735C38.1267 13.4207 38.1326 13.6797 38.1326 13.9505C38.1443 14.2095 38.1502 14.4626 38.1502 14.7098V22.3207H35.9604ZM55.3094 22.3207V10.1892H57.5872V22.3207H55.3094ZM61.2069 22.3207V10.1892H63.485V20.3076H71.1311V22.3207H61.2069ZM72.2128 22.3207L78.3401 10.1892H80.9361L87.0635 22.3207H84.5562L83.2495 19.7072H75.8681L74.5613 22.3207H72.2128ZM76.7862 17.8354H82.3313L80.7242 14.5332C80.6652 14.4037 80.5772 14.2213 80.4595 13.9858C80.3535 13.7386 80.2417 13.4855 80.124 13.2265C80.018 12.9675 79.9179 12.7379 79.8237 12.5378C79.7295 12.3377 79.6646 12.2141 79.6294 12.167H79.4882C79.3822 12.4024 79.2587 12.6791 79.1171 12.9969C78.976 13.303 78.8406 13.5973 78.7112 13.8799C78.5818 14.1624 78.4758 14.3861 78.3933 14.5509L76.7862 17.8354ZM89.3853 22.3207V10.1892H91.557L98.7089 17.2703C98.85 17.3998 99.015 17.5705 99.2035 17.7825C99.4033 17.9826 99.6035 18.1886 99.8037 18.4005C100.016 18.6124 100.192 18.8008 100.334 18.9656H100.475C100.463 18.7301 100.451 18.4358 100.44 18.0826C100.428 17.7295 100.422 17.4292 100.422 17.182V10.1892H102.612V22.3207H100.51L93.3409 15.169C93.0464 14.8746 92.7402 14.5568 92.4224 14.2154C92.1045 13.874 91.8515 13.6032 91.663 13.4031H91.5394C91.5512 13.5796 91.557 13.8563 91.557 14.233C91.5688 14.6098 91.575 15.0159 91.575 15.4515V22.3207H89.3853ZM113.437 22.5326C111.848 22.5326 110.477 22.2913 109.323 21.8086C108.17 21.326 107.281 20.6196 106.657 19.6896C106.033 18.7478 105.721 17.6058 105.721 16.2638C105.721 14.8982 106.033 13.7562 106.657 12.838C107.281 11.908 108.17 11.2016 109.323 10.719C110.477 10.2245 111.848 9.97729 113.437 9.97729C115.039 9.97729 116.416 10.2245 117.57 10.719C118.735 11.2016 119.624 11.908 120.236 12.838C120.86 13.7562 121.172 14.8982 121.172 16.2638C121.172 17.6058 120.86 18.7478 120.236 19.6896C119.624 20.6196 118.735 21.326 117.57 21.8086C116.416 22.2913 115.039 22.5326 113.437 22.5326ZM113.455 20.6078C114.221 20.6078 114.927 20.5254 115.574 20.3606C116.234 20.1958 116.805 19.9427 117.287 19.6013C117.782 19.2599 118.164 18.8243 118.435 18.2945C118.706 17.7648 118.841 17.1467 118.841 16.4404V16.0342C118.841 15.3396 118.706 14.7334 118.435 14.2154C118.164 13.6856 117.782 13.2501 117.287 12.9086C116.805 12.5672 116.234 12.3141 115.574 12.1493C114.927 11.9845 114.221 11.9021 113.455 11.9021C112.678 11.9021 111.96 11.9845 111.301 12.1493C110.653 12.3141 110.082 12.5672 109.588 12.9086C109.105 13.2501 108.729 13.6856 108.458 14.2154C108.199 14.7334 108.069 15.3396 108.069 16.0342V16.4404C108.069 17.1467 108.199 17.7648 108.458 18.2945C108.729 18.8243 109.105 19.2599 109.588 19.6013C110.082 19.9427 110.653 20.1958 111.301 20.3606C111.96 20.5254 112.678 20.6078 113.455 20.6078Z" fill="black"/>
<path d="M27.9541 0H-0.920898C-2.05999 0 -2.9834 0.923413 -2.9834 2.0625V30.9375C-2.9834 32.0766 -2.05999 33 -0.920898 33H27.9541C29.0932 33 30.0166 32.0766 30.0166 30.9375V2.0625C30.0166 0.923413 29.0932 0 27.9541 0Z" fill="black"/>
<path fill-rule="evenodd" clip-rule="evenodd" d="M5.2666 10.3126L7.1696 9.76172L13.5166 19.8053L19.8636 9.76172L21.7666 10.3126V22.6876H19.7041V13.8749L14.3884 22.2866H12.6449L7.3291 13.8749V22.6876H5.2666V10.3126Z" fill="white"/>
</g>
<defs>
<clipPath id="clip0_50_2215">
<rect width="127" height="33" fill="white" transform="translate(-3.6001)"/>
</clipPath>
</defs>
</svg>
