<svg width="127" height="23" viewBox="0 0 127 23" fill="none" xmlns="http://www.w3.org/2000/svg">
<g clip-path="url(#clip0_50_2232)">
<path d="M37.9653 12.5994V18.8198H35.1025V4.38086H37.9653V9.11257C38.654 8.29467 39.8163 7.95028 40.828 7.95028C43.5185 7.95028 44.7669 9.82286 44.7669 12.1474V18.8198H41.9042V12.6425C41.9042 11.4587 41.323 10.5331 39.9453 10.5331C38.7401 10.5331 38.0299 11.4371 37.9653 12.5994Z" fill="black"/>
<path fill-rule="evenodd" clip-rule="evenodd" d="M29.7301 13.8944H26.9967V18.8197H24.0264V4.38086H29.7301C32.7436 4.38086 34.7451 6.38255 34.7451 9.13759C34.7451 11.9142 32.7436 13.8944 29.7301 13.8944ZM27.0181 11.333H29.3641C30.8494 11.333 31.7533 10.4721 31.7533 9.15911C31.7533 7.80313 30.8494 6.96371 29.3641 6.96371H27.0181V11.333Z" fill="black"/>
<path d="M46.0576 18.8197H48.9201V8.22998H46.0576V18.8197Z" fill="black"/>
<path d="M53.2333 18.8198H50.3706V4.38086H53.2333V18.8198Z" fill="black"/>
<path fill-rule="evenodd" clip-rule="evenodd" d="M57.1391 12.7285C55.3743 12.9868 53.9751 14.0415 53.9751 15.9356C53.9751 17.5929 55.3528 19.1211 57.6127 19.1211C59.1838 19.1211 60.1956 18.3893 60.7335 17.5498C60.7335 17.9588 60.7767 18.5399 60.8414 18.8198H63.4672C63.4025 18.4538 63.3379 17.7005 63.3379 17.1409V11.9322C63.3379 9.8013 62.0895 7.90723 58.732 7.90723C55.8907 7.90723 54.3625 9.73675 54.1905 11.3941L56.7302 11.9322C56.8164 11.0066 57.5051 10.2103 58.7535 10.2103C59.9587 10.2103 60.5398 10.8344 60.5398 11.5878C60.5398 11.9537 60.3461 12.255 59.7435 12.3411L57.1391 12.7285ZM60.5398 14.5365C60.5398 16.4091 59.4207 16.9902 58.2153 16.9902C57.2899 16.9902 56.8378 16.3876 56.8378 15.7634C56.8378 14.9455 57.419 14.5365 58.1509 14.4289L60.5398 14.063V14.5365Z" fill="black"/>
<path fill-rule="evenodd" clip-rule="evenodd" d="M74.662 4.38086V16.9042C74.662 17.6144 74.7052 18.3893 74.7481 18.8198H72.0147C71.9715 18.6045 71.9071 18.088 71.9071 17.5929C71.4336 18.4324 70.3572 19.0781 68.9368 19.0781C65.9233 19.0781 63.771 16.7104 63.771 13.5034C63.771 10.404 65.8589 7.97182 68.8507 7.97182C70.6802 7.97182 71.5412 8.72515 71.8425 9.28477V4.38086H74.662ZM66.6552 13.5034C66.6552 15.3975 67.7745 16.5167 69.281 16.5167C70.7446 16.5167 71.8854 15.3975 71.8854 13.4819C71.8854 11.5878 70.7446 10.5331 69.281 10.5331C67.8175 10.5331 66.6552 11.6093 66.6552 13.5034Z" fill="black"/>
<path fill-rule="evenodd" clip-rule="evenodd" d="M85.6453 15.7849L83.2562 15.0746C82.9117 16.0217 82.18 16.6889 80.8455 16.6889C79.4249 16.6889 78.2411 15.6773 78.1765 14.2783H85.7529C85.7529 14.2677 85.7555 14.2339 85.7593 14.1829C85.7713 14.0256 85.7959 13.7045 85.7959 13.3958C85.7959 9.99501 83.8373 7.90723 80.5657 7.90723C77.8537 7.90723 75.3569 10.1027 75.3569 13.4819C75.3569 17.0548 77.9184 19.1426 80.824 19.1426C83.4284 19.1426 85.1071 17.6144 85.6453 15.7849ZM82.9763 12.3196H78.2411C78.3058 11.351 79.1236 10.2318 80.6086 10.2318C82.2444 10.2318 82.9334 11.2649 82.9763 12.3196Z" fill="black"/>
<path d="M89.2985 18.8198H86.436V4.38086H89.2985V18.8198Z" fill="black"/>
<path fill-rule="evenodd" clip-rule="evenodd" d="M90.749 22.9091H93.6118V17.7865C94.1282 18.4967 95.2044 19.0779 96.6682 19.0779C99.66 19.0779 101.661 16.7103 101.661 13.5032C101.661 10.3608 99.8752 7.99316 96.7758 7.99316C95.1829 7.99316 93.9992 8.70343 93.5256 9.52134V8.22991H90.749V22.9091ZM96.2161 10.5545C97.6797 10.5545 98.842 11.6522 98.842 13.5248C98.842 15.4188 97.6797 16.5166 96.2161 16.5166C94.7526 16.5166 93.5686 15.3973 93.5686 13.5248C93.5686 11.6522 94.7526 10.5545 96.2161 10.5545Z" fill="black"/>
<path d="M105.176 12.5994V18.8198H102.314V4.38086H105.176V9.11257C105.865 8.29467 107.028 7.95028 108.039 7.95028C110.73 7.95028 111.978 9.82286 111.978 12.1474V18.8198H109.115V12.6425C109.115 11.4587 108.534 10.5331 107.157 10.5331C105.951 10.5331 105.241 11.4371 105.176 12.5994Z" fill="black"/>
<path d="M113.269 18.8197H116.132V8.22998H113.269V18.8197Z" fill="black"/>
<path fill-rule="evenodd" clip-rule="evenodd" d="M116.937 15.9356C116.937 14.0415 118.335 12.9868 120.101 12.7285L122.705 12.3411C123.308 12.255 123.501 11.9537 123.501 11.5878C123.501 10.8344 122.92 10.2103 121.715 10.2103C120.467 10.2103 119.778 11.0066 119.692 11.9322L117.152 11.3941C117.324 9.73675 118.852 7.90723 121.693 7.90723C125.051 7.90723 126.299 9.8013 126.299 11.9322V17.1409C126.299 17.7005 126.364 18.4538 126.428 18.8198H123.803C123.738 18.5399 123.695 17.9588 123.695 17.5498C123.157 18.3893 122.145 19.1211 120.574 19.1211C118.314 19.1211 116.937 17.5929 116.937 15.9356ZM121.177 16.9902C122.382 16.9902 123.501 16.4091 123.501 14.5365V14.063L121.112 14.4289C120.38 14.5365 119.799 14.9455 119.799 15.7634C119.799 16.3876 120.251 16.9902 121.177 16.9902Z" fill="black"/>
<path d="M48.9203 6.89795C48.9203 7.2004 48.675 7.44558 48.3727 7.44558H46.6053C46.3027 7.44558 46.0576 7.2004 46.0576 6.89795V5.12915C46.0576 4.82672 46.3027 4.58154 46.6053 4.58154H48.3727C48.675 4.58154 48.9203 4.82672 48.9203 5.12915V6.89795Z" fill="black"/>
<path d="M115.502 7.44558C115.805 7.44558 116.05 7.2004 116.05 6.89795V5.12915C116.05 4.82672 115.805 4.58154 115.502 4.58154H113.735C113.432 4.58154 113.187 4.82672 113.187 5.12915V6.89795C113.187 7.2004 113.432 7.44558 113.735 7.44558H115.502Z" fill="black"/>
<path fill-rule="evenodd" clip-rule="evenodd" d="M1.47316 0C0.868325 0 0.37793 0.490363 0.37793 1.09523V6.57141C0.37793 7.17628 0.868325 7.66664 1.47316 7.66664H6.94934C7.55419 7.66664 8.04457 8.157 8.04457 8.76188V14.353C8.04457 14.8944 8.48336 15.3333 9.02483 15.3333H11.8779C16.112 15.3333 19.5445 11.9008 19.5445 7.66664C19.5445 3.43247 16.112 0 11.8779 0H1.47316ZM1.47317 15.3333C0.868287 15.3333 0.377933 15.8237 0.377933 16.4286V21.9047C0.377933 22.5096 0.868287 23 1.47317 23H6.94934C7.55421 23 8.04457 22.5096 8.04457 21.9047V16.4286C8.04457 15.8237 7.55421 15.3333 6.94934 15.3333H1.47317Z" fill="black"/>
</g>
<defs>
<clipPath id="clip0_50_2232">
<rect width="127" height="23" fill="white"/>
</clipPath>
</defs>
</svg>
