<svg width="50" height="50" viewBox="0 0 50 50" fill="none" xmlns="http://www.w3.org/2000/svg">
<path d="M45.6421 34.4469C47.0063 31.4772 47.6987 28.3016 47.6987 24.9943C47.6987 21.6872 47.0064 18.5114 45.6422 15.5417C48.1734 14.1341 49.8908 11.4327 49.8908 8.33666C49.8908 3.79367 46.1948 0.0976562 41.6518 0.0976562C38.5557 0.0976562 35.8543 1.81503 34.4468 4.34647C31.4773 2.98224 28.3016 2.28982 24.9942 2.28982C21.6869 2.28982 18.5112 2.98224 15.5416 4.34638C14.134 1.81503 11.4326 0.0976562 8.33656 0.0976562C3.79358 0.0976562 0.0976562 3.79358 0.0976562 8.33666C0.0976562 11.4327 1.81503 14.1341 4.34638 15.5417C2.98205 18.5114 2.28973 21.6871 2.28973 24.9943C2.28973 28.3016 2.98205 31.4773 4.34638 34.447C1.81493 35.8545 0.0976562 38.5559 0.0976562 41.652C0.0976562 46.195 3.79367 49.891 8.33666 49.891C11.4327 49.891 14.1341 48.1736 15.5416 45.6422C18.5114 47.0064 21.6871 47.6988 24.9942 47.6988C28.3014 47.6988 31.4771 47.0064 34.4468 45.6422C35.8543 48.1736 38.5557 49.891 41.6519 49.891C46.1949 49.891 49.8909 46.1951 49.8909 41.652C49.8908 38.5559 48.1734 35.8545 45.6421 34.4469ZM39.4375 7.84049C39.4375 6.61948 40.4309 5.62616 41.6519 5.62616C42.8729 5.62616 43.8662 6.61948 43.8662 7.84049C43.8662 9.06149 42.8729 10.0549 41.6519 10.0549C40.4309 10.0549 39.4375 9.06149 39.4375 7.84049ZM41.6518 15.0135C40.1772 15.0135 38.8136 14.5322 37.7076 13.7196C38.5898 12.4092 40.0511 11.617 41.6518 11.617C43.2525 11.617 44.7138 12.4093 45.596 13.7196C44.49 14.5322 43.1263 15.0135 41.6518 15.0135ZM41.6518 1.65979C45.3334 1.65979 48.3287 4.655 48.3287 8.33666C48.3287 9.97661 47.7333 11.4793 46.7488 12.6428C46.0917 11.743 45.2212 11.0436 44.2261 10.6C44.9651 9.91022 45.4283 8.92861 45.4283 7.84039C45.4283 5.75806 43.7342 4.06392 41.6519 4.06392C39.5696 4.06392 37.8754 5.75806 37.8754 7.84039C37.8754 8.92861 38.3387 9.91013 39.0776 10.6C38.0825 11.0435 37.212 11.743 36.5548 12.6428C35.5704 11.4793 34.975 9.97652 34.975 8.33666C34.975 4.655 37.9702 1.65979 41.6518 1.65979ZM1.65979 8.33666C1.65979 4.655 4.655 1.65979 8.33666 1.65979C12.0183 1.65979 15.0134 4.655 15.0134 8.33666C15.0134 9.97652 14.4182 11.4793 13.4336 12.6428C12.7765 11.7431 11.906 11.0436 10.9109 10.6001C11.6499 9.91032 12.113 8.92871 12.113 7.84049C12.113 5.75816 10.4189 4.06402 8.33656 4.06402C6.25424 4.06402 4.5601 5.75816 4.5601 7.84049C4.5601 8.92871 5.02337 9.91022 5.76226 10.6001C4.76718 11.0436 3.89668 11.7431 3.23951 12.6429C2.25507 11.4793 1.65979 9.97652 1.65979 8.33666ZM8.33666 10.0548C7.11566 10.0548 6.12233 9.0614 6.12233 7.84039C6.12233 6.61939 7.11566 5.62606 8.33666 5.62606C9.55767 5.62606 10.551 6.61939 10.551 7.84039C10.551 9.0614 9.55767 10.0548 8.33666 10.0548ZM12.2808 13.7196C11.1748 14.5322 9.81112 15.0135 8.33656 15.0135C6.862 15.0135 5.49836 14.5322 4.39236 13.7196C5.27458 12.4092 6.73586 11.617 8.33656 11.617C9.93727 11.617 11.3985 12.4093 12.2808 13.7196ZM4.39236 47.0349C5.27458 45.7245 6.73596 44.9322 8.33656 44.9322C9.93717 44.9322 11.3985 45.7245 12.2808 47.0349C11.1748 47.8475 9.81103 48.3288 8.33656 48.3288C6.8621 48.3288 5.49836 47.8475 4.39236 47.0349ZM8.33666 43.37C7.11566 43.37 6.12233 42.3767 6.12233 41.1557C6.12233 39.9347 7.11566 38.9413 8.33666 38.9413C9.55767 38.9413 10.551 39.9347 10.551 41.1557C10.551 42.3767 9.55767 43.37 8.33666 43.37ZM13.4336 45.958C12.7765 45.0582 11.906 44.3588 10.9109 43.9152C11.6498 43.2254 12.113 42.2439 12.113 41.1557C12.113 39.0734 10.4189 37.3791 8.33656 37.3791C6.25424 37.3791 4.5601 39.0734 4.5601 41.1557C4.5601 42.2439 5.02337 43.2254 5.76226 43.9152C4.76718 44.3588 3.89668 45.0583 3.23951 45.9581C2.25507 44.7946 1.65979 43.2919 1.65979 41.652C1.65979 37.9703 4.655 34.975 8.33666 34.975C12.0183 34.975 15.0134 37.9703 15.0134 41.652C15.0133 43.2918 14.4181 44.7946 13.4336 45.958ZM24.9942 46.1367C21.9046 46.1367 18.9387 45.4885 16.1668 44.2107C16.4309 43.4047 16.5756 42.5451 16.5756 41.652C16.5756 37.109 12.8797 33.4129 8.33666 33.4129C7.44351 33.4129 6.58394 33.5576 5.77788 33.8217C4.50005 31.0499 3.85186 28.084 3.85186 24.9943C3.85186 21.9046 4.50005 18.9387 5.77788 16.1669C6.58394 16.431 7.44351 16.5757 8.33666 16.5757C12.8797 16.5757 16.5756 12.8797 16.5756 8.33656C16.5756 7.44341 16.4309 6.58385 16.1668 5.77788C18.9384 4.50015 21.9044 3.85196 24.9942 3.85196C28.084 3.85196 31.0499 4.50015 33.8217 5.77798C33.5576 6.58394 33.4129 7.44351 33.4129 8.33666C33.4129 12.8797 37.1089 16.5758 41.6519 16.5758C42.545 16.5758 43.4046 16.4311 44.2107 16.167C45.4884 18.9388 46.1367 21.9047 46.1367 24.9944C46.1367 28.0841 45.4885 31.05 44.2107 33.8219C43.4047 33.5578 42.5451 33.4131 41.652 33.4131C37.109 33.4131 33.413 37.1091 33.413 41.6522C33.413 42.5452 33.5577 43.4048 33.8218 44.2108C31.0498 45.4884 28.0838 46.1367 24.9942 46.1367ZM37.7076 47.0349C38.5898 45.7245 40.0512 44.9322 41.6518 44.9322C43.2525 44.9322 44.7139 45.7245 45.596 47.0349C44.49 47.8475 43.1262 48.3288 41.6518 48.3288C40.1773 48.3288 38.8136 47.8475 37.7076 47.0349ZM39.4375 41.1557C39.4375 39.9347 40.4309 38.9413 41.6519 38.9413C42.8729 38.9413 43.8662 39.9347 43.8662 41.1557C43.8662 42.3767 42.8729 43.37 41.6519 43.37C40.4309 43.37 39.4375 42.3767 39.4375 41.1557ZM46.7489 45.9581C46.0918 45.0583 45.2213 44.3588 44.2261 43.9153C44.9651 43.2255 45.4282 42.244 45.4282 41.1558C45.4282 39.0735 43.7341 37.3792 41.6518 37.3792C39.5695 37.3792 37.8753 39.0735 37.8753 41.1558C37.8753 42.244 38.3386 43.2255 39.0775 43.9153C38.0824 44.3589 37.2119 45.0584 36.5547 45.9581C35.5703 44.7946 34.9749 43.2919 34.9749 41.6521C34.9749 37.9704 37.9701 34.9751 41.6518 34.9751C45.3334 34.9751 48.3287 37.9704 48.3287 41.6521C48.3287 43.2918 47.7334 44.7946 46.7489 45.9581ZM37.1315 24.9943C37.1315 18.3017 31.6867 12.857 24.9942 12.857C18.3017 12.857 12.8568 18.3017 12.8568 24.9943C12.8568 31.6869 18.3016 37.1316 24.9942 37.1316C31.6868 37.1316 37.1315 31.6869 37.1315 24.9943ZM14.4477 25.7754H18.2857C18.3377 27.2816 18.538 28.7375 18.8757 30.0807H15.7249C15.0117 28.7859 14.5616 27.3267 14.4477 25.7754ZM35.5405 24.2133H31.7025C31.6506 22.7071 31.4502 21.2511 31.1125 19.9079H34.2633C34.9767 21.2027 35.4268 22.662 35.5405 24.2133ZM30.1407 24.2133H25.7753V19.9079H29.4961C29.8545 21.2095 30.0827 22.6712 30.1407 24.2133ZM25.7753 18.3458V14.5461C27.0447 14.9607 28.1776 16.3646 28.9731 18.3458H25.7753ZM24.2132 14.5461V18.3458H21.0154C21.8108 16.3646 22.9436 14.9607 24.2132 14.5461ZM24.2132 19.9079V24.2133H19.8477C19.9057 22.6712 20.1338 21.2095 20.4923 19.9079H24.2132ZM18.2858 24.2133H14.4478C14.5617 22.662 15.0117 21.2027 15.7251 19.9079H18.8759C18.5381 21.2511 18.3378 22.7071 18.2858 24.2133ZM19.8477 25.7754H24.2132V30.0807H20.4923C20.1338 28.7792 19.9057 27.3174 19.8477 25.7754ZM24.2132 31.6429V35.4426C22.9437 35.0279 21.8109 33.6241 21.0154 31.6429H24.2132ZM25.7753 35.4426V31.6429H28.9731C28.1776 33.6241 27.0447 35.0279 25.7753 35.4426ZM25.7753 30.0807V25.7754H30.1408C30.0828 27.3174 29.8546 28.7792 29.4961 30.0807H25.7753ZM31.7025 25.7754H35.5405C35.4267 27.3267 34.9767 28.7859 34.2633 30.0807H31.1125C31.4502 28.7375 31.6506 27.2816 31.7025 25.7754ZM33.2116 18.3458H30.639C30.4187 17.7309 30.1674 17.1486 29.8848 16.6085C29.6153 16.0935 29.3243 15.6281 29.0151 15.214C30.6638 15.8943 32.1041 16.9798 33.2116 18.3458ZM20.9733 15.214C20.6642 15.6281 20.3731 16.0935 20.1036 16.6085C19.8209 17.1486 19.5696 17.7309 19.3493 18.3458H16.7768C17.8843 16.9798 19.3245 15.8943 20.9733 15.214ZM16.7768 31.6429H19.3493C19.5696 32.2578 19.8209 32.8401 20.1036 33.3802C20.373 33.8952 20.6641 34.3605 20.9733 34.7747C19.3245 34.0944 17.8843 33.0089 16.7768 31.6429ZM29.0151 34.7747C29.3242 34.3605 29.6152 33.8952 29.8848 33.3802C30.1674 32.8401 30.4187 32.2578 30.639 31.6429H33.2116C32.1041 33.0089 30.6638 34.0944 29.0151 34.7747Z" fill="black" stroke="black" stroke-width="0.0976336"/>
</svg>
